<svg xmlns="http://www.w3.org/2000/svg" width="136" height="30" fill="none"><path fill="#e85643" d="m68.5 27.9 1.3-.1zm43.1-2.8 1.4-.3 1-.1-1.4.2zm-.8.2h-.9l.4-.1zm-4.6.5.8-.2v.1zm-3.3.3.8-.2zm12.8-1.6h-.8l2.9-.5 1.2-.2-1 .2h-.2l-1.5.3h.2zm-20.4 2.1h.5zm-37.8-1H55l-2 .1-5 .1h-6.4.2-4.9c-.6-.1-.5-.2-1.5-.2h.5H33l-5-.3h-.7l-1.4-.1H25l-4-.4v-.1l-3.5-.5h-.7l-1-.2-1.3-.2-3.3-.7-2.5-.7a26 26 0 0 1-4.8-2L2 19l-.6-.6-.2-.3-.4-.6a6 6 0 0 1-.8-3l.6-2q.4-1 1.2-1.7 2.3-2.4 5.6-3.4L9 6.7c1.6-.6 3.8-1.2 5.2-1.6l3-.8h1V4l1.4-.2 1-.3 9.2-1.3h-.2c.6 0 1.7 0-1 .3l1.8-.3c.9-.1-.4 0 0-.1l2.6-.4.9-.1 1.2-.1 2.3-.2-.8.1 2.3-.3h1.5v.1c-.2 0-.6.1.2 0h.2l2-.3h-.3 1.2l.5-.1 2.2-.2h1.3l2.8-.2 4-.2h3.3-1l3.1-.1h4.6l1.3-.1h8l.9.1 5.6.2h.9-.8 1.8l2.4.2 5.2.3h-.2H92l.9.2 2.7.2 1 .1 2.1.2 2.9.3 2.4.2 2.7.5 1.7.1 4.2.7 2.2.4 3.4.7 1.2.3.6.2h.2l2.9.7q-.8-.1.2.1l.4.1 2 .6q2.1.7 4 1.6l1 .5c1 .5 1.6.8 2.7 1.6l1.3 1.3a6 6 0 0 1 1.4 3c0 .2-.1-1-.5-1.7l-.4-.5q.7 1 .7 2.3v.1l.1.4c0 .6-.4 2-.6 2.4-1.7 2.9-4 4-6.8 5.2l-1.1.5a32 32 0 0 1-5.8 1.6l-2.4.6-2.3.4h-.2l-4.2.7h-.1l-2.4.3-1.7.2-1.6.2-1.5.1-2.1.2-3.3.3c-1 .2-2.5.2-3.1.3l-4.6.3-3.5.1-3.3.2h-1l-4.4.2-2.7.1h-1.1l-1.5.1h-2.8l-2.2.2-5.7.2-2.5.1h-1.9c-.9 0-.9-.2-1-.3h.4-1.7l.4-.1c.1 0-.2 0 0-.1.9-.2 2-.2 2.2-.2h1l1-.2h.7l2-.1h3c1.2-.1.2-.2.2-.2h-2l-2.2.2h-4.2l.2.3h-1l.7-.2h-.7l2.5-.2 1-.1h-.8c-.3.1.3.1.2.1l1.9-.1H65c.3 0-.3 0 0 0 0 0 .9-.1.7-.2H69h-1.3L70 28l1.9-.2H71l2.8-.1h2.7l-1.2.1H78h-.4l1.4-.2h.8v-.1l1.7-.1h-.3 2.4c-.3-.1 0-.2 0-.2l2.3-.1 1.3-.1 2.3-.1h-1.1q-.7.1-.6.2h-3c.3 0-.2.1-.2.2h1.2l3.5-.3h.4l.2-.1c1.3 0 2.7-.2 3-.1l-6.3.4.4.1-2 .1-5.5.3c.6 0-.4.1.6.1H80l1.3-.1c1 0 .8-.1.8-.1h.8-.2 1.6l1-.1 2.2-.2-.4.1h-1.2 2.5-.4l1.6-.2h2.1-4.2 1.2l1.3-.1h1.5L93 27h2.3q.1-.1-.5-.1H92l5.2-.3 3.2-.2h-.3.7q.7 0 1.3-.2l-.9.1q.1 0 0 0l1.3-.1h-1.3l-1.2.1h.3-.1l1-.1h-.8l4.4-.2.8-.2 1-.1h-.2l-1.6.3h-.8l-1 .2h.3-.2 1-.2.6l.9-.1h-.4l.4-.1 3-.3 1.2-.2h.8l.2-.1h.2l.9-.2h-.9l1.2-.1 3-.6.7-.1q.5 0 0 0l.9-.2h.8c-.1 0-.7.2.4 0l-2.6.6-1.5.1h.7l1-.1-.8.2h-.3.3v.2l-.8.2h-.4l-1.3.2-1 .2h-.6l-3.3.4h-.5l-1 .2h-.7l-2 .1-.4.1-.4.1 1-.1 1.4-.2q-1.9.4-4.3.5h-1l2-.2h-1l-1.7.2-2.3.2h1.9-.2c2.4-.2.6 0-.4.1h-1.3l-5.4.5h1.7l1.2-.1h-.4l1.2-.2 3-.1-1.5.2H96l3.8-.3h-.2 1.4l-.4-.1h.8V27l2.1-.2h-.4l-1.6.2h.6l-.2.1 1.2-.2h1.7-.8l1.2-.1 1.3-.2c-.6 0-1.2 0-.2-.1h1.3-.3.5l1.4-.2h.8l.8-.2c.6 0 .8 0 1.5-.2l.8-.2h-.2l1.5-.2-.8.1q-.2.1.4.1l-.8.1v.1l1.2-.3 1.7-.3 1-.2-.2.1 1.8-.3.7-.2.5-.1 4.8-1.3 1.1-.4c.3 0 .1 0 1-.4l-.1.1 3.2-1.4h-.2l1.3-.6 1.7-1.1 1.1-1.1q.7-.8 1.1-1.8l.3-.8.1-.4v-1.3l.1.9v-.9c0-.4.1.4.1.2q-.1-1.2-.8-2l-.4-.5-.6-.7-.4-.2-.5-.4-.7-.5-1.2-.7-1.2-.7-.3-.2L128 8l-1.6-.6-3.2-1h.4l-1.2-.3-1.4-.4h-.2l1.7.6 1 .4-1-.3-.1-.1-1.6-.4-.9-.2-1.4-.4-.6-.2 1.2.2-3-.7c-1-.2-.3 0-.3 0l-1-.1-.9-.2-1.4-.3-4-.5-1.6-.2-.6-.1q1.3 0 2.4.3l-.8-.3c.2.1-.8 0-.4.1L106 3h-2l-2.5-.4h-1l1.5.1c.4 0 .1 0 .7.2l-3.5-.4-.5-.2.9.1-4.2-.3q1.6 0 .2-.1l-1.9-.1h.4H93l-2.1-.3.8.2-1.2-.1h.6l1 .2-1.6-.2h-1.3.9l-.5-.2-3-.1h.4c.1.1-.5 0 .1.1h-1.7.4l-.4-.1-.4-.1h-2.5.2l1.9.2 1.3.1v.1h-1l-2.4-.2 1.7.1 2.7.1h.4l2 .2h-.5 3c1.4.2 0 .2.4.2 1.4.2 1.4.1 2.3.1l2 .2h1l4.3.6 2.9.3h.4l2.1.3h.4l1.9.4h.2l1 .2 1.3.1 1 .2 1 .2 2.2.5h-.3l1.2.2.8.1 2.3.5c.5.2.2.1.2.2l-2-.5 1.2.4q-.8 0-1.3-.3l.4.2 1.6.3h.5-.3.3V6l1.4.3 1.5.4V7h.2l.7.3 1.6.5h.4l.6.4-1.1-.4 1.7.7 1.7.6c.2.1-.3 0-.4 0l-1.1-.5 1.9.9.7.4-.4-.1.3.1q.2 0 0 .1l.2.1h.2l-.3-.1.3.1c1 .6 0 0-.2-.2l.3.1-.3-.2c.3 0 1 .5.8.5l.9.6c.1.1-1-.7-.3-.3l1.5 1.3.8 1-.1-.1.5 1.2-.2-.3q.3.5.2 1.1 0 .8-.2 1.5l-.2.4-.1.4a5 5 0 0 0 .5-2.7V14q.3.3.2.8 0-.9-.4-1.6.5.9.5 1.6l-.2 1.2-.5 1.3-1.1 1.5.4-.7-.7.7-.2.2-.6.7-2.3 1.5-2.1.9-1.2.5-2.5.8-1.5.3h-.2l-2.8.8c.2-.1 1-.4-.5 0h.5l-2.5.5h.2-1l-1.3.2h.1l1.5-.3-.8.1 1.6-.3-.7.2h.6l.4-.1c.6-.2 1-.3-.3 0l.7-.2 2.2-.5.8-.1.9-.3-3.7.7c.8-.2-1 0 .6-.3l1-.2h-.5l-.8.2.6-.2 1.9-.2.3-.2 2.4-.6 1-.2.5-.2 1.6-.5.1-.1 1.2-.4.6-.6.4-.1 2-1-.5.3-.7.4-.7.4h.4l1.4-.9.6-.5c.3 0 .8-.5.8-.4l1.3-1.8q0 .3-.4.6s0-.3-.1-.1c.4-.6.4-.4.8-1.2l-.2.3.4-1.4-.1.7.1-.3-.2.9-.5.7c.1 0 .5-.7.5-.5l-.3.6c.7-1.2.6-1.6.6-1.7l.1-1v.6l.2-.7v-.4l-.1.3-.4-1.2.3 1-.2-.5-.5-1h-.1l-.9-1-.7-.6.4.1.6.6.5.4s-.3-.5 0 0q-.4-.7-1-1l-.3-.1-1.5-1q.4 0 .7.4l-1.8-.9c.4.1 1 .4 0-.2l1.9 1 .6.4.7.5q-.9-.8-1.8-1.3l-2-1-2.5-1-.7-.3 2 .8-3.1-1 1.7.6 1.7.7-.7-.2-1.2-.4h.4l-2.5-.8c-.5-.2 0 0-.3-.2l-1.7-.6.1.1.4.1s1 .4-.3 0l-2.4-.6-2.1-.5h.7-.2l.7.1-3.6-.6q-1.1 0-2-.3h.3l-3.9-.6 1 .3-2.3-.4-1.4-.2-1-.2-1.1-.1-.8-.1-.9-.2-.4-.2-.8-.2-1.7-.1s.2-.1-.6-.2h-.6L98 2.8l.9.1V3l-1-.1-.7-.1-2.7-.1-.2-.1-.9-.1h-1l-1.9-.2h.8-.4 1.3q-.5 0 0 0L90.5 2h-1.3c1.3.1 2.3.2 1 .2L88.7 2h-1.5.5l1.2.1h.9l-1 .2-2.4-.2H86h.4L84.6 2H87l-1.6-.1h-1.5l-.6-.1h-1.6.5l-.8.1-5-.2-.5-.1H78l.9.1.8-.1h-2.1v-.1h2-3c-1.4 0-.1-.1-.3-.2h-1l-1 .1-.7.2h-1.9 2.1-.8l3.8.1h-1l-.9.1h-.3L72 1.5h-5.7s.3-.1-.7-.1h-.9l.8.1h-1.7v.1h-2.9.8l.4-.2-3.6.2h-.8q-1 0 0 0 1.7 0 1.4-.1l-3.4.2-2.7.1-3 .2-2.3.1h-1 1v-.2h1l2.3-.1h-1.5l-1 .2 4.1-.3v-.1l-2.9.1-.6.2c-1.5 0-1 0-.2-.1l-2 .1h.1l-2.7.3.6-.2h.2-1.4c.2.1.4.1-.5.2l-.8.1h.4-.8l-.4.2-1-.1c-1.2 0-2 0-3.2.2l-4.2.6-.8.2H31l-.8.2q-1.3 0-2.5.3l1-.1-1.5.2-.7.1h.4-1.3l-1.2.3H24q-1.5.4-3.1.6h-.4.2-1l-1.6.3-.3.2h.6c.5-.1.8-.2 0 0l-1.8.3-.8.3-.9.2-1.3.3-1 .3-2.8 1c-.2 0 .8-.4.4-.3l.7-.3c.8-.2.2 0 0 .1l-.7.3 4-1.3h-.5l-1.4.4c-.4.1.6-.1-.5.2l-1 .3 1.2-.5-.6.2-1.7.6v.1l-1.2.4c-.9.3-2.2.9-2.6 1.2l1.7-.8L7 9h-.3l-.7.4-.7.3-1.6 1-.6.6-.8.9-.2.1-.5.8-.1.2c-.3.7-.4 1.4-.3 1.3v.2a4 4 0 0 0 1.1 3q-.6-.6-1-1.7L1 15l.3 1.3q0 .3.2.5l.8 1 .3.1 1 .8 1 .6 1.5.7h-.4l1 .6 1.8.6.4.2q1 .3.2 0l-1.5-.6-.8-.3h.4l1 .5 2.1.6 2 .5V22c.8.1.2 0 .7.2l4.9.8a82 82 0 0 0 8.4.9l3.9.3h-.8l3.3.2h-1.6l.4-.1h2.7c.5.1.7.2 1.5.2h1.8c-.7-.1-1.9 0-1.8-.1h4.8q.9.1.6.2h5.1-.4H47h-.4 4.6l1.2-.2v.1l5.5-.1v-.1h1.3c-.4 0 0 0 0 0l-2.1.2h3.2l-.3-.2h3.4-.9l.7-.2c.4 0 .8 0 0 0l-2.3.2.8-.1 2-.2h1.6l2-.2h2.8-.9l3-.2h-.5 1.7-.4.6l2-.1h1l3.5-.3h-1.6l4.1-.4-.2.1h.7l.2-.1 5.4-.5L93 22l1.3-.1 2-.2 2.9-.3 2-.2 1-.1h1.4q-1.4 0-1.3.1l-.8.1c-.1 0-.5.1.2 0q1.8 0 3.5-.4l-1.6.4h1.3l1-.2 1.5-.2h-.2c.5 0 0 0-.1.1h1.5-.5l.2.1-3.2.4h-.8l-3.5.4-2 .2-.9.2-2.8.2-2 .2-4.9.4-1.9.2-2 .2h-1 .3l-1.8.2-3.6.2h-1.5l-2.5.3h-.9l-5 .4-5 .1-2.8.2H58l-2 .2h-3.1l-2.2.1h-3.4.4l-1.2.1H45h.2-7.3a168 168 0 0 1-15.4-.8c-1.3-.1-.4 0-.4-.1L19 24l-.9-.1-2.5-.4-1.3-.2-1-.2-.8-.2-2.5-.6-2.4-.7L6 21l-1-.5-1.1-.6q-.3-.2-.3 0l-1-.9-1-1.2-.5-.6.5.8.5.6q1 1 2.3 1.7c-.3-.3-.4-.3.6.2l.1.2 1.4.5h-.2l2.9 1 1 .4h.2v-.1l3 .7q.5 0 .7.2 1 .1.9.2l1.2.2s-.1-.1.8 0l.8.2.9.1 1.3.2 1.4.1 2 .3H23l1.5.2c.2 0-1.4-.2-1.3-.3l3 .2h-.9l1.1.1.8.2h2.4c1.1.2-.5.1-1.1 0h-.2l2.5.2h-.4 1.2l1.7.1h6.4H38h4l1 .1h-.5H44l-.3-.1H45l-.4.1h1.7-.2 3.5l.9-.1-.4.1 1.9-.1h4.3c.6 0 2.7-.2 3-.1h-.8 1.3q1 0 .8.1h.8l-2.3.2zm67.3-3.2-1 .3v-.1l1.8-.5h.2l.4-.2.8-.2-1.2.5zm-2.6.6h.2l.6-.1h-.2zm-2.4.6-.4.1zm-14.5 2.2h-.3zm-3.7.3h.8zm-7.5.6h-.4zm36.5-6.8-.3.2zm-17 4.9h-.4zm12.6-16.3-.7-.3-.4-.2zm8.2 5.9v.7h-.1v-1zM81 27.4h-1.3zm39.1-3.8.8-.2zm.5-16.8-.8-.2zm8.1 2.7-.3-.1h.4zM82 27.5l.9-.1zm-4.1.2H77l2.5-.2v.1zm53.8-8.5.9-.7.6-.5-1.2 1-.2.3zM115.8 5.6h-.4l-1.3-.2zm13.5 4.1s.4.1.3.2zm-34 17L93 27zm13-1 .4-.2h.4zm10.4-19.4h.4zm5.2 1.4h.4zM70.4 28.2h.5l.9-.1 1.8-.1h-.8.8-1.3.2l-1.2.1c-.3 0-2.1.2-.9.2m33.4-24.4-1.2-.2zm2.1.3h-.4l-.4-.2h.8zm-6.4 22.3h-.4zm-3.6.4.6-.1zm-22 1h1.4zm48.4-20.7.4.2zm3.6 1.1-1.6-.5zM87 2.3h-1.8l-2-.2 3.4.1zm2.6.2h-.9zm44 10.3-.5-.7-.2-.1zm-.5 5.3q-.4.5-.6.5l-.3.2.6-.5zm-14-11.8.4.1zM98.7 26.5h.8zm-7-24H91zm39.7 8.3-.3-.2zm-68 17.5h-.3zm49.5-3.3h.4zM121 6.8h.4zm2.8.8h.4c0 .1-.4 0-.4 0m4.7 1.7-.4-.2zM95 2.8h.4zm1.7.2h.4zm34.9 16.4-.6.4zM108.4 4.3l.8.2zm4.1.7h-.4zM91.2 27l-1.3.1zM36 3.1h-1 .9m6.7-.6h.4zM84.2 2q-.5 0 0 0h-.8zM69.4 28.2H66zm60-18.7-.8-.3q.4 0 .7.3m-35.6-7h-1.2.3-.3l-3-.2h.9l1.6.2zM123 23.1l-.8.2zM110.3 4h-.7l-.8-.1 1.2.2c.3 0-.1 0 .5.2l-1.3-.2h-.4l3 .6h-.5l1.7.2 2 .4-2-.4-1.3-.2-.6-.2 1 .2-.8-.3 1.1.3 1.6.3h.6c-1.3-.2-.6-.1-1.2-.3l1.2.2-.4-.1-1.4-.3h-1l-.9-.2h.9zM98.5 26.7h.7zM106.3 4l.9.2V4zm4.3 21.6h.2zM86 2h.4zm-48 .8h.6-1.2zm70 23-1.2.2h.6zM26 4.2l-.8.1zm3.3-.5-.6.1zm34.3-2.1h-.4zm12 26.4H75h.8m53.4-7h.3zM105.5 3.9h-.4zm3.3.4.4.1zm21 16.7.7-.4zh-.3l-.5.4-1.5.6.7-.3-1 .3-.5.4-1.3.4-1.8.5s-.6.1 0 0l4.3-1.3.2-.2.7-.2zM45.6 2.2h.4zM126 8l.3.1 1 .4zm8.5 5.6-.1-.3zM11.7 7.2h.4zm34.3-5h-1.2L46 2M8.5 20.7l.4.2zM76 28.1h.9-.5L76 28zm1.3-.2h.4zm-53-23.5h-.5zm107.4 15 .3-.2zm-29.6-16h.4zm-42 25.3h.4zm49.8-3.1h.4zm-1.2.3h.4v-.1l-2 .2h-.1zm-5.9.5h.4zM89 2.2h-1zm-34-.5h-.5zm76.6 18-.7.5zM1.8 13.2l.2-.3zm2.8-2.8-1 .8zm103-6.5-3-.3-2-.3 1.2.2.9.2 3.3.4h.4l-1.2-.2zM69.1 1.5H67zM36.9 2.8h.4zm14.6-1h.4zm-50 13.6.2 1q-.4-.8-.4-1.5zm61.3-14-.8.1h1.7c-.2-.1.4-.1.3-.2zM78.6 28H77v.1h1.6M2.7 11.8q0-.2.3-.2zm4.7-3-.7.3zm1 12.1-.3-.1zM22.8 4.5l-.8.2 2.9-.4.1-.1h-.6q-.9 0-1.6.3m33.8-3h1.3zM31.8 3l-3 .5h.9q-1.3 0-2.6.3h-.6l-1.4.3 1.7-.2 1.3-.1.8-.2.8-.1zm53 24.7h-1.1zm-9.5.4h-.9zm31-24.3-1.2-.2zm-67-1.4-1.6.3zm25.5 26.1h-.4zm-45-23.4L21 5h-.2zM8.1 20.8l1 .3zm-6.2-8 .2-.4zm69.2 15.6h-1.3zm-2 0h.3zm.4-27h.9zM6 9.4l-.7.5zm111.6-3.8.4.1zm16 6.3c0 .2.9 1 1.2 2l-.4-1zM99.7 3l-.9-.1zm-81 20.4h1.6l-.8-.1h-.6c-.8-.2-.3-.1-.2-.2l-2.1-.2.8.3H17zM80.8 1.7h.5zm33 23.6h-.9zm-8.3 1h.4zm23.2-17.4.7.4-.3-.3zM95.5 27.4s-.7 0-.4-.1c.2 0 1.8-.2 1.6-.3l-3 .2H95h-.8l-.4.2zm-65.4-24h-.4zM27.4 24h.4zM74 28.2h-.8zM24.5 24l-.9-.2zm-3-.3 1.3.1-.4-.1h-1.7l-1.2-.1q1 0 2 .3zm91-19-.7-.1 1.2.1zM85 1.7q0 .2.5.2 1 0 .8.1h2-.5zM16 6h-.3zm68.2-4.1h.4zM124 7h-.4l.4.3zM40.4 24.5H40zm-5.9-.1h.9zm54.2 3.2h-.4zm-6.3.3h1.1l1.4-.2q-1.4 0-1.2.1zm-48.7-3.6h-.4zM2.4 17.7h.2l.1.3zM66.2 1.3H69h-2.9m22.7 21.3 2.7-.3h-2.1l-.7.1h-.2l-.8.1zM41.4 2.3H41zM80 1.5l2.1.2zm-2 21.7h-.4zm48.6-15-.4-.2zm-70.2-7s-.2.1.8 0l-1.6.2-2.1.2 2.9-.1H56l4.1-.3zm-25.3 23h-.4zM94.9 22l-1.5.1h-.8l-1 .2q1.5-.2 1.6 0zm.4 0 .4-.1zm29.5 1 .4-.1zM14.8 6l.7-.1 1.4-.3h-.2q-1 0-1.9.4m90.7 20.2-.9.1zM66 24.1h1.1l1-.1-.6-.1h.2zm35.8-21h-.4zm-8.5 19.3c1-.1.6-.1.9-.2l1.1-.1h-.8l2.1-.2h-.4l1.2-.1v-.2l-1.3.2h.9l-1.2.1-1.3.3q-1.2 0-1.2.2m-67.5 1.5h.4zm9.7-21.1h.3l.6-.1zm89.8 20q1.8-.4 3.5-1.3l-1.2.5-2 .6v.1zq-.5.3 0 0m-42.6 5.5h.8l.7-.2H87l2-.1h.1l2.4-.3-.8.1H90l.8-.1h-1.2.8-1q-.8 0-.7.1l-2.5.1h-.4l-1.7.2h-1l-1.5.2h.9l-.9.1zm-12-27h1.7zM15 22.7l-.8-.2zm88.9 3.8h-.8v.1zM5.4 19.8l-.4-.2zm16-15.1H21zm.9-.2-.4.1zm110.4 6.6.3.3zM88.3 27.6h-.8zm-11.3.6h2.3l1-.1h-3.1l-1.5.1-.4.1zM97.6 2.7h-.4zM27.4 24h.4zm47 4.2h.5zm-5.8.3h-2.1zM41.8 2c-2.4.2-1.4.2.4 0zM12.3 22l.6.2-1.7-.4c.5.1 0 0 0 0zm31.1 2.6h-.5zm61.2 1.8h.4zm-65.9-1.9h3-2.1.4zM92.1 2.2h.5zM99 21.7h.9c.3-.1 0-.1.2-.2.1 0 .9-.1.7-.2l-1.2.2v.1l-2 .2zm-70.2 2.5h.4zM99.3 2.7l1.4.3h1.5c-1.1 0-1.4-.2-2.5-.3zM71.5 28.4h.4zm58.7-7.6.4-.2zm-43 1.8h-.5l-.6.1h1.7zm29-17.3q.9 0 1.5.3h.2l-1.6-.4M108.5 26h-.4zM20.2 4.9h-.4zm106.6 3.2-.4-.2zM21.4 4.7H21zm67 23h-1zm-87.1-14-.1.4s.1-.4 0-.4m33.3-11L33 3l1.3-.2.8-.1h-.3c0-.1.8-.2-.6 0zm21.8 26.5H56zm48.7-26 .9.2v.1l-3.4-.4 1 .1 1.9.3h.9l.4.2 1.6.2q-.5 0 0-.1l-.6-.1h-.4zM3.7 10.7l-.3.3zM60.2 29h1.3v-.1zm54-3.6v-.1m-67-23.6h.9zm38.2-.2H83zM51 1.6h-.4zm1.3-.1h.8zm35.2.3h.5l1 .1h.2l-1.5-.1zM23.1 4.3l3.3-.5H26l-1.4.2h-.8zm72-2h-.4zm-65.9 1-2 .4c.8 0 0 0 .5-.1zm73.2 18 1.7-.3zM80.8 28h.4zm-58-4.3h.4zm60.4-.8h-.8zm36.4-17-.5-.2h.5zm-9.1 19.8h.4zm11.1-19.4h.2zM38 24.7l-.8-.1h.8M91 2h-.4zM32.7 24.4c-.3 0 .5.1 0 .1l-2-.1 3.4.2zm-2.4 0h-.2zm-27.6-13 .7-.5zm1-.8 1-.7-.5.3zm90 11.6h-1c-.8 0-.7.1-.7.1zM5.4 9.5l-.3.2zm80.3 13.3h1.7-2.5zm-36.9 1.9h.9zM12.6 6.6l-.2.1 1.2-.4h-.4zm.9 16h.6l-.8-.2zm-1-.3L12 22zm62.1 1.4H74h.4-.4zM19.7 4.9l-.4.1zm33.8-3.6-.2.1zM69.4 24h-.9zm15 4.1H84l2.1-.2-.8.2zm50.5-12.3V15zM29.1 24.3h-.2zM2 12l-.2.3zM71 1.2h.5zm5.6 0c-.4 0 .5.2.7.1zM48.8 24.8h-1.2zm40.8 3h-.4zM61 1.2h.4zM55.6 1h-2.1 1.7H54h2.5c-.5 0-.3 0-.4.1h-.8q-.5 0-.4.2L56 1h3.8l3.4-.1h.8-.4l.4.1h-.3 1.5C65 1 64 1 64.4.9h2-4.5.4-1.7.9zm12.2.3h.8zm-45 22.6h.4zm98.9.1-.5.1zM77.4 1.3h.4zm13.4 26.3h.4zm-.6-5.1h.4zM88 27.9l1-.2zM1 15.7l.1.4zm0-2.2v.6-.4l.1-.4zm79.7 14.7h.4zm-55-4h.8zl-.9-.1zm86-20 .8.2zM10 7.4q.4 0 .8-.3zm68.7-6.2 1.7.2-.4-.1h.6zM44.8 25h-.1c0-.1.6-.1.3-.2q-1.5 0-.2.2M49 1.6h-.4zM21.4 4.5h.4zM128 8.4l.4.1zM98.4 2.5l-2.3-.2H96zm-72.1.9 3.3-.4h.7-.2.4l-3.8.5c.3 0-.3 0-.2.1h.3l2.6-.4h.2L31 3c-.2 0 .5-.2 0-.2l1.4-.3-1.6.3c-1.1 0-.3-.1-.3-.1l2.5-.4-1.2.2-1.7.2h.4-.8V3c-1.4.2-1.3.1-2 .1zm45.3 25.2h.4zM5.4 9.4l-.4.2zM85 23h.6zh-.6zM13.8 6l-.6.2zM4.2 19.5q0-.2-.3-.3zM1 15.3v.4zm101.5 6-1.3.2zM70.5 1h-2.7l2.1.1h1.7zm34.6 25.7 2-.3zm-77.3-2.3-1.2-.1h.4zM2.4 11.6l-.3.3zm55.2 13H56zM36.7 2.3h1.1zM54 24.7h.4zm-4.2.1h-.5zm60.8 1.3c-.7.1-.6 0-.8 0l-.8.1 1.2-.1zM36 24.8h-.2zm-6.9-.4h.4zm44.6 4.2h-.9zm-58-5.5h.4zm64.6.3h-.4zM23.6 4l-1 .3-1.2.2 2-.4zm10.1 20.8h.4zm101.4-10.5-.2-.6v-.2l.2.6zM1 14.1v.4zm1.3-2.6q.2 0 .3-.2zM116 25.3l.6-.2zm-32.7-2.1h.4zM20.5 4.6h-.4zm42.6 19.8H62l-.5.1zm71.7-7.7v-.2l.3-.6q0 .4-.3.8m-54 11.6h-.4zm15-6.2h.4zM73 1h-3.2 1.4-.5l2 .2h.5l1.3-.1zM9.5 7.4l-.7.3zm69.4-6.3.7.1zM11.1 6.8l-1.2.4 1-.3 1-.3zm15.5 17.6-.4-.1zM76.6.9h-.7l-.5.2h2.1-.9zm-6.7 0h-.4q.2.2.4 0M56.5 29.6l1.2-.1zm-39.1-6v-.1H17zM118 24.8l.8-.2zm-34.1-1.7h-.2zM43.4 1.7h.5zM14.1 23h.4zm93.5 3.5h.9zM88.4 1.6h.4zm-86.7 16q.5.5.5.3l-1-1.3zM92.1 1.8h-.4zm-91 11.4.1-.4-.2.8-.3.8zm28.4 11.3h.4zM98.8 2.4h.4zM73.3 1h-.9zM38.8 2.1h-.4zm65.5 24.7h-.4zM53.5 1.2H53zm45.7 26-.4.1zm-44.4-26h-.4zm54 19.6h-.5zm-23.4 7.3-1.2.1h1.2m20.9-7h.4zM80 28.4h-1zM67.4.9H67zm51.8 23.8.5-.1zM78 1h2l.7.1h.2-.8 1.2-2.1V1zm40 23.9-.4.1zm.4-19.6 1.6.4zM46.8 1.5h-.4zm62.9 24.7h-.4zM44.2 25h.4zm91-11.1v.4zm-3.6 6.7-1 .4h.2l-.7.4zm-58.8 8.2h.4zm34-25.4h.4zM39.2 1.8H43h-1.3l.2-.2zm76.3 23.6h-.4zM12.7 6.3l.6-.2h.2l-.6.1zM90 28h-1.2zm4.7-26h.4zm-63 22.8-1-.1h-.3zM100 2.5l-1.3-.1zM134.7 17l-.4.7zm-1.2 1.7-.6.6zM35 2.3h.9l3-.3H37zm2.6-.2h-.4zm43.6-1h.4zM14.3 5.9 14 6zm3.7-1h.3c-.1.1-.7.3.5 0l.3-.2zm116.6 7.8.2.4zM80 28.4h.4zM11 6.7h.4zm35.4-5.5h-1l.8.1h.9c-1.3 0-1.2.1-1.7.2h1.7l.2-.1h1l1.3-.2zM125 7l-.4-.1zM20.5 4.4l-.4.1zm67.5-3 .4.1zM24.6 3.8l1.3-.2q-.7 0-1.3.2M134 11.9l-.1-.2zm-28 9.3-.9.1zm-23 7.1h.4zm-53.3-3.6h.3zm26.8.1h.4zm8 4.3h.4zm49.8-24.7.4.1zM43.4 1.6H43zM118 5c-.4 0-.2.1-1.7-.2h.5zM37 25h-1.7zm-3.8-.2h.4zm-12-20.6L23 4l.8-.2zm111.3 15.5.3-.2zm-6.8 3.4-.8.3h.2zM6.4 8.5q.4 0 .7-.3zm66-7.7h2zM11 6.7 10 7zm32.8-5.2h1.3zM116 4.7h-.4zm18.8 12.6.6-1.8a6 6 0 0 1-1.5 3q.6-.4 1-1.2M32.6 2.6h-.4zM123 23.9l-2.3.6 2.3-.4zM12.4 22.7l-.8-.3zm116.2-.6.4-.2zM72.4.8H72zM17.8 23.7l-.8-.2zM4.8 9.3l.8-.4.3-.2.8-.4zM57.7.9h-.4zM1.3 17l-.2-.4zm32 7.8h.4zm77.2-21.2h-.4zm1.3 22.5h-.8zM49.8 1h-1zM53 1h-.4zm74 6.6.3.1zM58.8.9h1.3zm75 17.7-1.2 1.2zM104.7 2.8h-1.3.4l1.3.1zm-37-2h-.3zM43 1.6l.6-.1zm40.7-.5h-.4zm46.7 8-.4-.2zM33.4 25h-1zm-2.2-.1h-.8zM64 .7h.8zM7.5 21.4l-.4-.2zM125 6.9l-.4-.2zm-88.5-5-2.9.4-.6.1h1.3l-.3-.1 1-.1h.1l1.3-.1s1.1-.2.1-.2m-32 7.5-.7.6 1-.7zm116 15.4 1.4-.4-1.6.4zm-1.9.3.4-.1zm-5-21 1.2.3-.2-.2-.7-.1zM13.1 23l.4.1zm.2-17 1.2-.4zM17 5l-.4.2zm114.6 4.8.2.2zm-103.9 15H27h.9m-2.2-.1h-.2l1.2.1zM129 22l-2 .8zm-73.2 3h-.6zm-33.4-.6h.4q-1-.2-.8 0zM17.5 4.8l1.7-.3h-.5zM128.3 8h.2zM3.3 19.3l.4.3zM60.6.7h.4zm72.2 19.2-1.1.7zM28.3 24.8h.6zM68.2.7h.8zm57.2 22.7-.7.2zM11.7 6.4h.2v-.1zm31.6-5-3.6.3 3.8-.3zm32.1 22.7h.5zm13-22.9 1.7.1h-.4l-.8-.1zM30 25h3.3zM97.2 2h-.4zM.6 14l.1-.4-.2 1zM32.5 2.5H32zm70.1.1.8.1zm-34 26.6h.5zM80 1h-.4zM50.7.9h-.9L49 1h3.2V.8zm42.5.8-.7-.2zM66.5.4H69zM7.4 8H7zM111 3.6l.8.2zM9 7.2l-.4.2zM113 4s-.4-.1-.4 0zm10.5 2.2-1.4-.3zm1 .4h-.3zm-100.8-3h.4l1.3-.3zM.9 16.7l-.2-.9q0 .5.2.9m26.7-14c-1 .3.1.2 1.1 0h.4zm36.8-2H64zM2 11.3l-.3.3zM69.9.6h.4zm57.6 22.1.4-.1zm-2 .7.4-.1zm8-12.6-.5-.3.7.6q0-.3-.3-.3m-30.9-8.4.8.2zm5 .6v.1h.9zm17.1 20.7.4-.1zM8.1 7.5l-.3.2zm66-6.9h.8zm4.7.1.7.1zM19.9 4.2l-.8.2 1.3-.2zM62 .5h-2.1l-.3.2 1.1-.1h2.1zm42.8 2.2h-.4zM80.4.7v.1h.4zm49.3 7.8-.4-.2zM57.2.7h.9zM.7 13.2l.2-.5zM34.5 2l-1 .1zm69.8.5h-.4zm-91.4 3-2 .7h-.3A47 47 0 0 0 4 9.5L7 8l1.6-.6h.2c1.6-.6.5-.3 1.8-.8l1-.2 1.7-.6 3.2-.8 2.1-.5q.9 0 1.8-.4h.4l-1.2.1-1 .2-.6.2q-2.7.7-3 .6l-1.5.5-.9.2zm9.8-2h.2zM.2 14.6V14zq0 1 .3 1.7l-.1-.7za5 5 0 0 1 1.2-3.2L1 12q-.4.6-.6 1.5-.3.4-.2 1M81.6.8h-.4zM1 12.2l-.4 1q.3-.9.7-1.3l1.6-1.6-.3.3 1-.8-.5.4-.3.1-.8.7-.2.2c-.2 0-.7.8-.8 1m105.5-9.4.8.1zM38.7 1.5v.1H40v-.2zM50.5.8h.8zm51.7 1.4L99.7 2zm-69.8 0h.5zm4.6-.5-2 .2q1.5 0 2.9-.3zM19.5 24.2H19zM10.9 6.4l-.4.1zm32-5.2h-.4zm12.3 24h-.4zM12.4 23l.4.1zm7.1-18.8-1 .2h-.2zm4.5-1-2.8.7 3.7-.8zM55.5.6v.1h.5zM28 25h.8zm28.5.3h-.3zm-8 .2h1-.9M88.9 1h-.4zM57.2.5h1.3zM66 .4h.5zm63.2 21.9.4-.2zm-94.6 3.1h-.4zM26.2 3h-.4zm7-1-.4.1h.9v-.2zM10.1 6.6l.4-.1zm42.6 18.9v-.1h-.4zm59.7 1s.4 0 .3-.1zM15.5 4.9l-1.4.4 2.5-.6zm37-4.3h.5zm45.1 1.1 2 .2zM64.4.4H64zm3.3 0h.9zM21.6 24.5h-.2zM45 1c-1.7 0-.5 0 0 0m6.5 24.5h.4zm-34-21-.5.1zm39.3-4h-.4zM.2 15v.4zM65.6.3h-.4zm38.7 2v.1h.4zm1.7.3h-.4zM13.2 23.4v-.1l-.8-.2zm26.9 2.2h-.4zM25.3 3h-.4zm.8-.2h-.4zM64.4.3h.4zM50.9.7h.8zm-9.5 24.9h-.9zm65.8-22.9.4.1zM15.7 23.8h-.4zm34 1.7h.5zM96.9 1.6h.2zm-84 3.9-1.7.6zM47.5.8h.9zM21.1 3.7h-.4zM76.6.3l1.2.1zM45.8 1h.2l.7-.1zm5.7 24.7h.4zm76.8-18h.2zM1 17.7l-.2-.4-.2-.2zM93.8 1.3h-.4zM32.5 25.4h.4zm-1.7 0h-.2zM34 1.7l-1.6.2zm15 23.9h.4zM54 .5h-.5zm44 1.1h-.3zM63.2.2h.4zM16 24l-.8-.2zM48 .7h.9zm2.5-.2-1.2.1zM.3 16.1v.4zm20.4 8.5h.4zM8 7.2l-.4.1zm6.4 16.5-.8-.1h.8m38.3 1.9h.4zM61.4.2h.8zm3.4 0h-.4zm-3.2 25.2H61l.9-.1h.8zm-5.5.1h.4zM26.5 2.7h.5v-.1zm7.1-1-.4.1zm13-1h-.4zm-44 18.8.8.6zm56 6h.4zM3.8 20.3 5 21zm53.6 5.3h.4zm-1.7 0h.4zM66 0h.4zm-1.3 0"/></svg>