<svg xmlns="http://www.w3.org/2000/svg" width="113" height="26" fill="none"><path fill="#e85643" d="m59.5 24 1-.2zm35-3.9 1-.3 1-.2-1.2.3zm-.7.2h-.7zm-3.7.7.7-.2zm-2.7.4.7-.2zm10.4-2-.7.2 2.3-.7 1-.3-.9.3h-.1l-1.2.3h.2zM81.3 22h.4zm-33.2-.5h-3.7l-4.1.1h-9c-.6-.1-.5-.2-1.3-.2h.3-2.2l-4.1-.2h-.5l-1.2-.1h-.7l-3.3-.4-3-.5h-.5l-.8-.1-1-.2-2.7-.6-2-.5-4-1.7c-.4 0-1.3-.7-1.7-1L2 16l-.2-.3-.4-.4A6 6 0 0 1 .2 13l-.2-.8v-.8q0-1 .6-1.8a10 10 0 0 1 4.6-3.4l1.3-.6 4.3-1.4 2.4-.6h.9v-.1l1.1-.3c.5 0 .2 0 .8-.2l7.6-1h-.2c.4 0 1.3 0-.8.2L24 2c.6-.1-.4 0 0-.2l2-.3h.8l1-.2 1.8-.1-.6.1c1.1 0 1-.2 1.8-.3h1.3v.2h.3L34 .8h-.2 1.3V.7l2-.2h1l2.2-.2h3.3l.6-.1h2.1-.8L48 .1h3.8l1-.1h7.3l4.6.2h.7-.7 3.5v.1l4.3.2h-.2 1.9l.7.2H77V1h.9l1.7.2 2.3.2 2 .1 2.2.4h1.4l3.4.5 1.8.3q1.5.1 2.8.4l1 .2.5.2h.2l2.4.4q-.6 0 .1.1h.3l1.8.4 3.3 1 .8.3q1 .3 2.3 1l1.3.6.8.5q.7.4 1.3 1.1c0 .2-.5-.5-1-.9l-.5-.2q.7.4 1.4 1.2l.3.2q.4.4.6 1.1a3 3 0 0 1-.2 2.2q-1.5 3-4.2 4.5l-.9.6L104 19l-1.4.5-2 .7-1.8.5h-.2q-1.6.5-3.3.8l-.2.1-1.9.4-1.3.3-1.3.2-1.3.1c.1.1-1.5.3-1.7.3l-2.7.4-2.5.4-3.7.4-2.9.2-2.7.3h-.8l-3.6.3-2.2.2h-.9l-1.2.1-2.3.1-1.8.2-4.6.3h-2l-1 .1h-.6q-.9 0-.8-.3l.3-.1h-1.4.3v-.2c.7-.1 1.7-.2 1.8-.1l2.4-.2H54h.5l1.7-.2h2.4c1-.1.1-.1.2-.2l-1.7.2v-.1l-1.8.1h-.6l-1 .1H52h1.4l-1.2.2h-.8l.5-.1h-.6l2-.2.9-.2-.7.1c-.2 0 .3 0 .2.1q1 0 1.5-.2h1.4-.1l.6-.1c1.1-.1 1.7 0 2.8-.2h-1 1.8l1.5-.2h-.6l2.2-.2H66l-1 .1 2.2-.1H67q1.4 0 1.2-.2l2-.2h-.3l2-.1q-.1 0 0-.2 1 0 1.9-.2h1l1.9-.2-1 .1h-.4l-2.4.3h-.2s.4 0 .2.1l-.6.1 1.3-.2c1.2 0 1.8-.2 3-.3h.3l.1-.1c1-.2 2.2-.3 2.4-.2H78l-.3.2-3.4.4h.4l-6.2.6c.5 0-.3.1.6.1h-.2l1-.2h.7l.7-.1H71h1.3l.8-.2 1.8-.2-.4.2h-1 1l2.1-.3h.7l1-.1-3 .2h-.4l1-.1 1-.1h.2l1-.1 1.2-.1 2-.2h-.4l-1 .1h-1.3l4.2-.4 2.6-.3h-.2.6l1-.2H86q.1 0 0 0l1-.1h-1v.1l-1 .1h.2c-.1 0-1 0 0-.1h.8-.7l3.6-.4.6-.2.9-.1h-.2l-1.3.3-.7.1-.8.2h.3-.2l.9-.1h-.3.6l.7-.1h-.3l.3-.1 2.3-.4 1-.3h.9l.2-.1.6-.2-.6.1.9-.2 2.3-.7.7-.2q.2 0 0 0l.6-.1.7-.2c0 .1-.6.3.4 0l-2.1.7c-.5.1-.5 0-1.2.3l.1-.2.4.2.8-.2v-.1h.5-.1l-1 .2c.2 0-.2.1-.2.2h.2l-.6.3H96l-1 .3-.8.2h-.6l-2.6.6h-.4l-.8.2h-.6l-1.6.2-.4.1-.3.1.9-.1 1.1-.2-3.5.5v.1h-.9q.8 0 1.7-.3h-.9l-1.3.3-1.9.3 1.6-.1h-.2c2-.2.5 0-.3.2h-1.1c.3.1-.9.2-1.3.3V23l-2.2.3H80h-.3l1-.2 2.4-.3-1.2.3h-.2l3.1-.4h-.2l1.2-.1h-.3l.7-.2q.9 0 1.6-.3l-.3.2q-.8 0-1.3.2l1.3-.2h.4l1-.1h-.7l1-.1 1-.2c-.4 0-1 0-.2-.1h1.2-.3.4l1.1-.3.7-.1.7-.2L95 21l.6-.3h-.2l1.2-.2-.6.2h.3l-.6.2 1-.3 1.3-.4.8-.2-.1.1 1.4-.4.5-.2.5-.2 3.7-1.4.9-.5.7-.5v.2l1-.7 1.4-.9h-.2l1-.7 1-1.2.8-1 .1-.5.3-1.2-.2-.7h.1l-.2-.3-.6-.9.5.5-.4-.5c-.2-.2.2.2.1 0l-1.4-1-.4-.3-.7-.4h-.3l-.5-.2-.6-.3-1.1-.5a34 34 0 0 0-6.3-1.8l.3-.1-1-.2L98 4h-.2l1.5.5h-.2L98 4h-.7l-.7-.3-2.5-.5c-.8 0-.2 0-.2.1L91.1 3 88 2.6l-1.4-.1-.5-.2 2 .3v-.1l-.6-.2c0 .1-.8 0-.4.1l-1.3-.2-1 .1-.6-.1-2-.3h-.9 1.3l.5.2h-.6l-2.2-.3h-.4.7-1.4l-1.3-.2v.1l-2-.3h.3-1c-1 0-.8-.1-1.8-.2l.7.1h-1 .5l.8.1H73l-1-.1h.6l-.3-.2h-2.4.3s-.5 0 0 .1H69h.3l-.3-.1-.4-.1h-2 .1q-.7.2 1.6.2l1 .1v.1h-.7l-2-.2 1.4.2h2.5l1.6.1h-.4 2.5c1.1.1 0 .1.3.2h1.8L78 2h.8l3.5.4h.7l2 .2 1.8.1h.3l1.5.3h.2l.9.1 1 .1.8.2.9.1 1.8.3h-.3l1 .2h.7l1.8.4h.2l-1.7-.2 1 .3-1-.2.3.1 1.3.2h.4-.3.4v-.2l1.1.3 1.2.2V5h.1l.7.2q.7 0 1.4.3h.3l.5.2c-.4 0-1.4-.3-1-.1l1.4.3 1.2.4-1-.2 1.7.5.5.3-.3-.1.3.1.2.1h.1-.3v-.1l.3.1c1 .4 0 0-.1-.1-.2-.1.2 0 .2 0l-.3-.2.8.3.8.5-.3-.2 1.5.7.9.5q-.7-.4.7.7l-.3-.2q.9.8 1.2 1.8v.5q.2-1-.7-1.8l-.1-.4.4.5-1-1q1.1.8 1.5 1.8l.2.5v.6l-.2.7-.4.7.2-.7-.5.7v.3l-.4.6a12 12 0 0 1-3 2.6l-1 .5-2 1 .6-.4-1.7.7-.1.2-2.3.8c.2-.1.8-.4-.4 0h.4l-2 .6.2-.1-.8.2-1 .2c.3-.1 0 0 0 0l1.2-.4-.6.2 1.3-.4-.6.2.5-.1h.3c.5-.2.8-.4-.2 0l.5-.3 1.8-.5.6-.2.7-.3-1.8.5-1.2.4c.7-.3-.8 0 .5-.4l.7-.2h-.3l1.3-.3.3-.2 1.9-.7q.5 0 .8-.3l.3-.1 1.2-.6v-.2l1-.4.4-.6.3-.1 1.3-1.2c.2-.1-.2.3-.3.4l-.5.4q0 .2-.4.5l.5-.4-.2.3 1-.9.3-.5.6-.4.5-1.3v.1q0-.2-.2 0v-.2c.2-.3.3-.3.3-.8v.2q0-.4-.3-.8l.2.4v-.3l.2.6-.2.6c.1 0 .2-.6.3-.4l-.1.5q.2-.9 0-1l-.1-.3-.4-.7v.1l.3.3-.1-.3-.7-.7q.3 0 .4.3v.2l-.8-.7.7.6-.4-.2-.8-.6h-.1l-1-.6-2-.8 1.3.4h.3l1.2.6s-.4-.3 0 0l-1.1-.7h-.2l-1.7-.6-.7-.2c.3 0 .9.2 0-.1q.7 0 1.2.3c.6.3 1.6.8 1.7.7l-1.7-.7-1.7-.7-2.1-.6-.5-.1 1.6.5-2.7-.6 1.5.4.7.2.7.2c.4.1-1.3-.3-.6 0l-1-.3h.3c-.5-.1-1.7-.4-2-.6-.5 0 0 0-.3-.1L99 5h.1l.4.1s.7.3-.3 0l-2-.3-1.7-.4h.5-.1.5l-1.6-.1h-.4l-1-.2L92 4h.2c-.8 0-1.9 0-1.7-.2l-1.6-.1.9.2-1.9-.3-1.2-.2-.8-.2h-1.5V3l-.7-.1-.4-.2-.6-.1-1.4-.1s.2-.1-.5-.2h-1.5l.7.1h-1.4v-.2h-3.1l-.2-.1H73h.7l-.4-.2h1q-.2 0 0 0H73v-.1h-1 .8-2.5l.3.1h1.7l-.8.2-2-.2h-.2.3-1.4q-.1-.2 1.2-.2h.7-2.6l-.5-.1h-1.3.1l.4.1h-.7l-4.1-.1-.4-.1h1.7l.7.1.7-.1h-1.7H64l-.8-.1h-1.7c-1.1 0-.1-.1-.3-.1h-1.7l-.1.2h-1.9 1.7l-.7.1h3.1-.8l-.7.1H60l-2.2-.1h-4.6s.2-.1-.6-.1H52l.6.1H51v.1h-2.4.7l.3-.2-2.9.2H46q-.7 0 0 0 1.4 0 1.2-.1l-2.8.2-2.2.1L40 2h-2.6.7v-.1h.8l2-.1h-1.3 1.7l.9-.1v-.1h-2.4l-.5.2h-1.9l-2.2.3.5-.2h.1-.8l-.3.1-.4.1h.4l-1 .1h.3-.7l-.3.2-1.4-.1h.7v-.1l-2.8.2v.1l-3.3.4-.7.2h-1.1l-.6.2-2 .2h.8l-1.3.1-.6.1h.4-1l-1 .2h-.4l-2.5.5h-.4.2-.7l-1.4.2-.3.2h.6q.8-.2 0 0l-1.6.3-.6.2-.7.2-1.1.3-.7.2-2.3.8c-.2 0 .6-.3.2-.2l.7-.3c.6-.2.1 0 0 0l-.6.4c1-.4 1.9-.7 1.8-.8l1.4-.3h-.4q-.7 0-1.2.3l-.3.1-.7.2.8-.3-.5.2-1.4.5-.9.4-2 1 1.3-.7 1-.4-.2.2-1.3.6h-.2l-.5.4c-.4.2-.3 0-.5.2l-1.3 1-.4.4-.4.9h-.2l-.2.8v.7l.2.5A5 5 0 0 0 2.9 15q-.6-.5-1-1.2h-.1l-.5-.7.5 1q.2 0 .4.3l.7.7h.3l.8.7.9.3 1 .6.8.5 1.4.5.3.2h.2l-1.3-.6-.6-.2H7l.8.4 1.8.5 1.7.4v-.1c.6 0 .1 0 .5.1l2.3.4 1.7.3 6.8.8 3.2.2h-.6l2.7.2h-1.4l.3-.1h1.3l1 .1h2.7-1.5 3.9q.8 0 .5.2H39h-.4 1-.3H43q-.2-.1 1-.2v.1l4.4-.1 1-.1c-.3 0 0 0 0 0l-1.6.2h2.5l-.1-.1h1.7l1-.1h-.7.5c.3-.1.7-.1 0-.1l-1.9.1h.7V20l1.7-.1h1.3l1.7-.2h2.1-.6l2.4-.1h-.4l1.4-.1h-.3 2.9l2.9-.3h-1.4l.8-.1h.7l2-.2h-.3.7l4.5-.4 3.5-.3 1-.1 1.6-.2 2.4-.2 1.7-.2.8-.1h1l-1 .1-.6.1s-.4.1.2 0q1.5 0 2.9-.3l-1.4.3h1l1-.1c.4-.1.3-.2 1.1-.2h-.2c.5 0 0 0 0 .1h1.2-.4l.2.1-2.6.3-.7.1-2.8.3-1.6.2-.8.1-2.3.2-1.7.2-4 .4h-1.5l-1.7.2h-.7.2l-1.5.2-3 .2h-1.1l-2 .2H61l-4 .4-4.2.1-2.2.1-1.6.1h-.6l-1.7.1h-3l-1.3.1h-2.8.3l-1 .1h-1.2.2-6l-7.9-.4-4.7-.2c-1-.2-.3-.1-.3-.2l-2.5-.3-.7-.1-2-.3-1.1-.1-.9-.3q-.7 0-.6-.2l-2-.4-2-.6-1.4-.5-.8-.4-1.1-.4-1-.6-.9-1-.4-.3.5.6.4.4 2 1.2.5.2.2.2 1 .3q1.1.6 2.2.8l.9.4h.1v-.2l2.6.6.5.2q.8 0 .7.2l1 .1h.7l.6.2.7.1 2.3.3 1.5.2 1.2.2c.1 0-1.2-.2-1-.3l2.3.2h-.7l1 .1.6.2.2-.1h1.7c1 .1.5 0 0 .1 1 .2-.4 0-.9 0h-.1l2 .1H26h2.4l2.7.1h2.4-1.3 3.4l.7.1h-.4H37l-.1-.1h1-.3l2.2.2 1.2-.1h1.4-.4l1.6-.1h6-.7 2.4l-1.9.2zm56.8-4.7-.8.3 1.4-.7h.1l.4-.2.6-.2-.9.5zm-2 .7.5-.2h-.1zm-2 .7-.2.1zM89.5 21h-.3zm-3 .5.7-.1zm-6.1.8H80zM109 14l-.2.2zm-13 5.6h-.3zm6.3-13.5-.7-.2-.3-.1zm8 3.5.3.4zl-.1-.3zM69.7 23.3h-1zm31.6-5 .6-.3zM97.8 5H97zM82.7 22h-1zm22-15.3h-.4v-.1zM70.4 23.3h.7zm-3.4.3h-.6l2-.2v.1zm42.8-10.2.6-.7.3-.5-.7 1zm-16-9.1h-.4l-1-.1V4zM105 6.9l.3.1zM81.3 22.2l-2 .3zm10.5-1.5q.4 0 .3-.1zm4.3-16 .3.1zm4.3 1h.3zm-22-3v-.1M61.1 24.2h.3l.7-.2h1.5-.6v-.2h.6-1 .2l-1 .2c-.3 0-1.8.2-.7.2M83.9 3l-1-.1v-.1h.7zm1.7.2h-.3l-.4-.2h.7zm-.9 18.5h-.3zm-3 .5.6-.2c.4 0-.4.2-.6.2M64 23.8h1zM99 5.3h.3zm3 .7-1.3-.3zM70.3 2h-3.1zm2 .2h-.7zm37 6.5-1-.5zm1.6 3.6-.4.5-.3.2.4-.5zM63.8 1.8h-1.4zm32.6 3h.3zM84.1 22l.6-.1zM74 2.2h-.8zM55.3 24.5H55zM95.5 20h.3zm2.6-15 .3.1zm2.3.5.4.1zM76.8 2.4h.3zm1.3.1h.3zM110 13.6c0 .1-.6.6-.4.3 0 0 .6-.6.4-.3M87.6 3.4l.7.1zm3.4.4h-.3zm-13 19h-1zm-49.5-20h-.2l-.5.1h.7m5.5-.5h.3zm33.9-.5q-.5 0 0 0l1 .1h-1.7v-.2zm-7.7 22.5h-.7l-2 .1zM105 6.8l-.6-.2zM75.7 2.2h-1 .3-.3L72.3 2h.7l1.3.1h1.4m28 15.4-.6.3zM84.5 3h1zm4.6 0H88l1 .1.4.1H88l2.4.4H90l3 .5-1.6-.3-1-.2-.5-.1h.8l-.7-.1c.6 0 .4 0 1 .2l1.2.1.5.1-1-.3 1 .2-.3-.1-1.2-.2h-.8l-.7-.2h.7c-.8 0-.7 0-1.2-.2M84 22.2q.6-.1.5-.2zM86 3l.7.1zm7.8 17.4h.2-.4zM69.2 1.8h.4zM30 2.6h.6zm-9.6 1.2h-.7zm58-1.4-1.3-.1zm-55.3 1h-.5zm28-1.8h-.4zM65.4 24h-.7zm42.7-8.7.2-.1zM85.3 3H85zm2.7.3h.3zM108.8 15l.4-.5zh-.2l-.4.4-1 .8c-.2 0 .5-.4.4-.4l-.7.4-.4.3-1 .5-1.4.7s-.4 0 0-.1q-.6 0-1 .3h.7l1-.5 2.7-1.3v-.2l.6-.2zM36.4 2h.3zm-23 3H13zm88.7.6 1 .4zm8 3.4-.3-.2zM81.2 2.6h1zM8.7 6.3l.3-.1zm28-4.3-1 .1zM8 17.3l.3.1zm57.7 6.8c.9 0 .7 0 .7-.1h-.7zm1-.2h.4zM19 3.9h-.3zm91 9.7.2-.2zm-27.4-11 .3.1zM52.7 25h.3zm40.5-4.2h.3zm-1 .3.4-.1zm-4.7.7h.3zM71.6 1.9H71zM44 1.7h-.4zM1.4 11.4v-.2zM3 9l-.7.6zm84-6-2.4-.3-1.7-.1h1v.1q.7 0 .7.2l2.7.2h.4l-1-.1zM55.5 1.3h-1.7zM29.2 2.6h.3zm12-.8h.3zM1.7 13.3l.4.7q-.5-.5-.6-1zM50.4 1.5h-.7 1.4c-.2-.1.4-.1.3-.2zm17.4 22.4h-1.4zm-66-13.6.1-.2zm3.5-2.8-.6.4q.1-.3.6-.4M8 17.4l-.3-.1zm9.6-13.5-.7.2q1.4 0 2.4-.3h.2c-.1-.1-.6 0-.5-.1zm27.6-2.3h1zM25 2.7l-2.3.4h.7l-2.2.3h-.4l-1.1.3 2.3-.3.7-.1.7-.2zm47.7 20.8h.5zH72zm-7.7.6h-.7zM86 3l-1-.1zm-54.8-.7-1.3.2zm25.3 22.4H56zM15.3 4.5l1-.2H16zM7.7 17.3l.8.3zm53.9 7.1h-1l-.7.1zm-1.7 0h.3zm-4-23h.7zM4 8.2l-.6.3zm89-4.3 1.4.2zM108.8 8c.1.2.9.6 1.6 1.2zM71.5 23.6h-.7zm9-21.2h-.7zM16.3 19.6c-.6-.2 0-.1.3-.1h1.1l-.7-.1h-.5c-.6-.2-.2-.2-.2-.2l-1.7-.2.7.3h-.4zm48.8-18h.4zm24.5 19.9h.3zM81.5 23h-.3l1.2-.4-2.3.3h1-.7l-.3.2zM24 3l1-.2zm-.4 0h-.3zm-.1 17h.3zM64 24.2h-.7zM21 20c-.3-.1.2-.1-.6-.2zm-2.3-.2h1-.7l-1-.1h-1zM91 3.5l-.7-.1h1zm-22.6-2 .4.1h2.4-.5zM12.3 5l-.3.1zm55.6-3.5h.3zm30.3 3 .3.2zm2.3.4h-.3l.3.2zM34.1 20.4h-.4zm-4.8-.1h.6zm78.6-12.7.6.3-.4-.3zM76 23.3h-.3zm-5 .4h.8q1.1 0 1.2-.2-1.2 0-1 .2zm-42.3-3.4h-.3zM3 15l.2.2zM53 1.3h2.4zm20.5 17.5 2.2-.2h-2.4l-.7.1.4.1zM33 2.2h-.3zm31.5-.8 1.7.1zm.5 18h-.4s.4-.1.4 0m37.9-13.6-.3-.1zM45.2 1.2h.7l-1.4.2s-1 0-1.7.2l2.4-.1H45l2-.2h1.4-3.1m-18.7 19h-.3zm52-2h-1.2l-.6.2h-.9 1.4zm.4 0 .3-.1zm26-.9.4-.1zm-93.6-12 .5-.1L13 5h-.2zM55 20h.8l.9-.1-.6-.1h.2zM82.2 2.5H82zm-5 16.2c.8-.1.5-.1.7-.2l1-.1h-.7l1.7-.2h-.3 1V18h-1v.1h.6l-1 .1-1 .3q-1 0-1 .2m-55 1.2h.2zm6-17.4h.6zm77.1 14.8q1.6-.7 2.7-1.5l-.9.5-1.5.8zq-.4.2 0 0M71 24.2l.7-.1.5-.2 2.4-.2 1.7-.1 2-.3H77h.7-1l.6-.1h-.8l-.5.2-2 .2h-.4l-1.4.2h-.8l-.5.3h-.7zM56.9 1.3h1.4zM13.3 18.9l-.7-.2zm75 2.9h-.8v.1zM16.4 4h-.2zm.8 0h-.4zM108 7.4l.2.2zM75.6 23.3H75v.1zm-9.2.9h.7l.5-.1h.7l.8-.2h-.3l-2.2.2-1.2.1H65zm12.4-22h-.3zM23.4 20h.4zm41 4.2h.3zm-4.8.4-1.7.1zM33.2 2c-1.9.1-1 .2.4 0zM11.1 18.4l.5.2-1.3-.4c.3.1 0 0 0 0zm25.4 2.2v-.1H36zm52.4 1h.3zm-56.2-1h2l.4-.1h-1.7.3zM74.4 1.7h.3zM81.8 18h.7c.3-.1 0-.2.2-.2.1 0 .7-.1.6-.2l-1 .1v.2l-1.7.2zm-57.3 2h.3zM80.2 2l1.2.3h1.2l-2-.3zM62 24.6h.3zm47-9.6.3-.2zm-36.8 3.9h-.8 1.4zm22-15 1.1.3h.2zm-78.6.4-.3.1zm87.2 1.5h-.3zM16.6 4h-.3zM1 12v.3zm26.3-9.6-1.3.2c.8 0 .6 0 1-.2h.7zc0-.1.7-.2-.4-.1zm22.2 22.9h-.3zM85 2.5l.6.1v.1L83 2.4l.9.1 1.5.2h.7l1.7.3q-.5 0 0-.1zM2.4 9.3q-.2 0-.2.2zm50.3 15.9h1V25zm10-24v.1h1zm34 19h-.4v.1zm-59-18.5h.7zm31.2-.3h-2zm-28.1.2-.4-.1zm29.8-.1c.5 0 .1 0 .4.1h1-1.4M18 3.8l2.6-.4h-.3l-1 .1h-.7zM76.7 2h-.3zM23 3l-1.7.4c.7 0 0 0 .4-.1.5 0 1.5-.2 1.3-.3m61.7 14.7 1.4-.1zM69.5 24h.3zm-49.8-4.1h.3zm49.3-.6h-.7zM93.6 21h.3zM32 20.6h.4l-1-.1h.6M73.3 1.7H73zM27.7 20.4c-.2 0 .5 0 0 0h-1.5l2.7.1zM1.6 9.9h.1l.4-.5zm.7-.7.8-.6-.4.3zm75.2 9.2h-.8q-.8.2-.5.2zM3.7 8.3l-.3.2zM71 19h1.4-2zm-30 1.6h.6zM9.3 5.6l-.1.2zM12 18.8h.5l-.7-.1zm-.8-.2-.4-.2zM62 19.7h-.5.3l-.3.1zM15.2 4.3H15zm27.6-3-.1.1zm15 18.6H57zm14.6 4q-.3 0-.2-.1l1.7-.2-.6.1zm5.7-22V2h.7zm33.4 8.3-.3-.4.3.5zm-86.7 10h-.1zM1.3 10.5v.3zm56-9.3h.3zm4.4 0h.6zM41 20.6h-1zm35.8 2.8h-.4zM49 1.2h.3zM44.5 1h-1.7H44h-.3l-.7.1h2-.3l-.6.1q-.4 0-.4.2l1-.2H48l2.8-.1h.6-.2l.3.1H51h1.3c-.3 0-1 0-.7-.2h1.6-3.6.3-1.3.6-4.8m10 .3h.7zM19.7 19.9h.3zm82.8-1.4-.3.1zM62.4 1.2h.3zm15.3 22.1h.3zm-10.6 1h-1zm7.7-5.6h.3zm.7 4.9h-1.2l2-.2zm-74-10 .2.3zM1 12v.2q.1.5.2.3v-.3l-.2-.4zm68.5 12h.3zm-47.4-3.8h.7L22 20h-.7zM7.3 6.4 8 6q-.4 0-.7.3M94 3.7h.4zM63.4 1.1l1.4.2c-.1 0-.7-.1-.3-.1h.4zM37.7 20.8h-.1c0-.1.4-.1.2-.2q-1.3 0-.1.2M39 1.5h-.3zM16.5 4h.4zm87.3 2h.4zM79.5 2h-2.1zm-59 1 1.2-.1.9-.1h-.3 1l.6-.1h-.2.3l-1.2.2-1 .2h-.9c.2 0-.2.2-.2.2h.2l2.2-.4h1.2c-.1-.1.4-.2 0-.2l2.8-.4s-.9 0-1.6.2l-1.4.1c-.8.1-.1 0-.2 0l2-.3h-1l-1.3.2h.3l-.6.1-1.6.2zM62 24.6h.3zM3.6 8.1l-.2.2zm67 11h.5zH70zM10.3 5.3l-.5.1zM4.5 16.4l-.3-.3v.1zm48.8 3.9h1zm-52-7 .2.3zm83.4 4.5-1 .1zM56.7 1h-2.2 3zm32.6 21 1.7-.4v.1zm-65.5-1.5-.7-.1h-.3 1M1.4 10.2l-.2.3zM48 20.5h-1.3zM29 2.1h.3zm16 18.5h.3zm-3.5.1h-.3zm52.1.4-.7.2h-.7l1-.2zm-53.8-.4h-1zm-9.4 0h-.2zm-5.7-.3h.4zm39 4.2H63zm-49.9-5.4h.4zm52.7.3h-.3zm-48.2-16-.9.1-1 .3 1.7-.4zm10.2 17 .3.1zM1 12.5l.1.4zm.4-2.3.2-.2zm43.8 10.6h-.7zm53-.6.4-.2zm-29-.8h.3zM15.7 4h-.3zm36.8 16.4h-1l-.4.1zm59.2-9.5v-.2l-.1-.5zM69.5 24.2h-.3zm9.8-5.8h.3zM58.7 1h-2.5 1-.3l1.5.1h1.5zM6.8 6.4l-.5.2zM63.5 1l.6.1zM8.2 5.8l-1 .4.9-.3q.5 0 .7-.2zm14.6 14.5h-.4zM61.6.8l-.5.1-.5.1h1.7-.6zm-5.4.2h-.4zm-6.5 24.6h1zm-34.4-6v-.1h-.4zm84.4 0 .6-.2zm-30.1-.2.5-.1h-.7zm-35-17.8h.3zm-22 17.5h.3zm78.7 2.5.7-.1zm-20-20.2h.3zM2.3 15l.4.3-1-1zm72-13.5H74zM.8 11.7v-.3.7zm24.4 8.8h.3zM79.8 1.9h.4zM59 1h-.7zM30.8 2h-.3zm57.8 20.2h-.3zM42.8 1h-.3zm41.7 21.6h-.3zM43.8 1h-.3zm46 16.2h-.3zM73.3 24l-.3.1zm14.5-6.3h.4zm-19 6.7h-.6zM54.2.9h-.3zm8.6.1H65h-.7 1-1.7.7l-.7-.1zm37 18.7h-.3zm-6.3 1.5.6-.1zM37.3 1.4H37zm55.7 20h-.3zm-55.8-.6h.3zm73.5-12 .3.3zm-.6 5.8-.7.5h.2q-.2 0-.5.4zm-47 10.1h.3zm45.1-8.6-.7.4h-.2zM86.3 2.5h.4zm-55.2-.8h3.1-1l.1-.2zm66.6 18.6h-.3zM9.5 5.4l.5-.1h.1zM77 23.6l-1 .1zm-.7-22h.3zM27 20.6h-1zM80.9 2h-1zm31 9.3-.1.7zm-.6 1.7q0 .3-.3.5zM27.7 2l.4.1h.3l1.7-.2h.7-.4zm2 0h-.3zm35.7-1h.4zM10.8 5l-.3.1zm3-.9h.3c-.2.1-.6.3.4 0l.2-.1zm28.6-3h-1zM110 8l.3.2zM69 24.4h.3zM8.2 5.8l.3-.1zM37 1h-.2l-.7.1h1.4l-1.3.2h1.5l.9-.1 1-.1zM15.8 4h-.3zm55.1-2.7h.4zm-51.7 2 1-.1zm90.1 4.6-.1-.1zm-21.8 10v-.1h-.7v.1zm-16.2 6.4h.3zm-46.1-3.6h.3zm21.9.1h.4zm9.1 4.6h.3zM92.4 3.2h.4zM34.5 1.5h-.3zm61 2c-.3 0 0 .2-1.3 0zM31.4 21H30zm-3.1-.1h.3zM16.5 3.7l1.4-.3.6-.1zm94.3 10 .2-.2zM4.3 7.3l.7-.2zm54-6.6h1.6-1.7M8 5.7l-1 .4zm27-4.2h1v-.1zm59 1.9h-.4v-.1zm10.5 2.3h-.2zm7.7 5.7q0-1-.4-1.6.6 1.2 0 2.4zm-86.5-9h-.3zm78 16q-.8.5-1.7.7l-.8.4zm-92.4.5-.7-.1zm96.8-2.6.3-.2zM58.2.8H58zm-42.6 19-.7-.2zM3.1 8l.6-.3.2-.2.7-.4-1.3.7zm83.2 14.6-.7.1zM46.2 1h-.3zM1.8 14.7l-.2-.3zm26.5 6.1h.3zm61-18.1h-.2zm5.4 18.4-.6.2zm-54.9-20H39zm2.6 0h-.3zm60.6 4h.3zM47.2.9h1zm64.5 11.7-.8 1.2zM84.7 2h-1.1.3l1 .1zM54.3.7H54zm54.5 15-.6.4zM34.2 1.6h.7v-.1h-.7M62 .7h1zm5.5.3h-.3zm38.4 5h-.3zM28.3 21h-.7zm-1.8-.1H26h.6M51.3.8h.7zm-44.1 17-.3-.1zm94-13.2h-.3zM29 1.7l-2.4.3-.5.1h1-.2l.9-.2h1s1-.2.2-.2M2.7 8.1l-.5.6.9-.7zm104.1 9-.6.3zm-5.2 2.3 1.1-.4zm-1.5.4h.3zM91.8 3l1 .2h-.2V3l-.5-.1zm-80 16.3h.4zM10 5l1-.3zm3-.7h-.3zm94 2.2h.2zM23.9 20.7h-.7zm-1.9-.2-.1.1 1 .1zm86.4-4.3-1.4 1zm-61.7 4.7h-.5zm-27.2-.5h.3-.7zM13.4 4l1.2-.2h.2-.4zM3.7 16.4l.3.1zM48.6.7h.3zM111 13.9l-.8.8zm-86.8 6.9h.5zM54.8.6h.7zm50.8 17.2-.6.3zM34.3 1.4l-2.9.1h.9zm28.3 18.8h.3zM71.3 1h1.3l-.3.1-.7-.2zM25.5 21h2.8-1.6q-1-.2-1.2 0m53-19.5H78zm-78 11v-.3.7zm25-10.4h-.3zm34.1 23.1h.3zM64.4.8H64zM40.5.8l-.7.1H39h2.6zM53.4.6h2.1zM5.2 6.7l-.3.2zm84.6-4.1.6.1zM6.4 6.2l-.3.1zm85-3.4h-.3zm2.8.4 1 .2zm5.8 1.1L99 4zm1 .2h-.4zM18.4 3h.3q1.2 0 1-.2zm-17 11.6-.4-.7q0 .4.4.7M21.7 2.5c-1 .2 0 0 .9 0l.3-.1H22c-.5.1 0 0-.4 0m30-1.9h-.4zM1 10l-.2.3zM56 .5h.4zM107.2 17l.3-.2zm-1.5.8.3-.1zM108.5 7l-.3-.1.6.3zM83 1.8h.7zm4.1.4h.7zm18 16 .3-.2zM5.8 6.3l-.3.1zM59.6.6h.7zm3.8 0 .6.1zm-48 3-.7.2 1-.2zm34.2-3h-1.9 2.6zm35 1.3h-.3zM64.7.7h.4zm40.6 5-.3-.1zM45.8.7h.7zM.4 11.8v-.4zm27-10c-.6 0-2.1.2-1 .2l.5-.1zm5-.5-1 .2zm51.9.6h-.4zM9.6 4.7 8 5.3h-.2L4.2 7 2.6 8l-.3.3c1-.6 1.4-1 2.4-1.5l.4-.1 1-.4h.1c1.2-.5.4-.3 1.5-.7H8l1.8-.7 2.7-.7 1.7-.4 1.5-.3h.3-1l-.8.2-.5.2-2.4.5zM92.8 3l.7.1zM17.6 3h.2zM.4 13v-.5q.2 1 .7 1.8l-.2-.6-.5-1.6a4 4 0 0 1 .3-2l-.3.6q-.2.6-.1 1.4zM36.6.8h.6zM65.8.7h-.4zM22.2 2.4h.5zM.2 11v.8l.2-1.2 1-1.7-.1.4.8-.8q0-.2-.5.3l-.2.2-.6.7-.2.2zM86 2h.7zm-55.3-.6h1v-.1zm9.6-.7q.8 0 .7-.1zm42.3.9-2-.1zm-57 .3h.3zm3.7-.4-1.7.1v.1l2.4-.3zM17 20.3h-.3zm-9-15-.3.2zm26.1-4.2h-.3zm12 20.1h-.3zm-35-1.9h.4zm4-15.8-.9.2H14zm3.6-.7-2.3.5 3-.6-1.3.2zM44.4.5h.4zM23.8 21h.7v.1zm23.3.3H47zm-6.4.2h.7zM71.6.8h-.3zM45.8.5h1zM53 .4h.4zm55.5 16 .3-.2zm-97.3 3 1 .1zm18.1 1.9H29zM20.4 2.6h-.3zm5.8-.9-.3.1h.7v-.1zM7.3 5.6l.3-.2zm36.8 15.8h-.3zm51.1 0h.3zM11.8 4.1l-1.2.3 1.4-.2.6-.2zM42 .6h.4zm36.8.6 1.7.2v-.1zm3 .2 1.1.1zM51.7.4h-.3zm2.8 0h.7zM18.7 20.5h-.2zM35.8.9c-1.4 0-.3 0 0 0m7.3 20.5h.3zM13.3 3.8 13 4zM45.5.5H45zM.5 13.4l.2.3zM52.7.4h-.3zm31.6 1.2.3.1zm1.4.2h-.4zM11.8 19.6l-.6-.2zm22 1.9h-.3zm-14-18.9h-.4zm.6-.1h-.3zM51.7.3h.3zM40.6.6h.7zm-5.8 20.9h-.7zM86.7 1.9h.3zM13.9 20l-.4-.1zm27.8 1.4h.3zM78.1 1.1h.2zM9.5 4.7 8.2 5zM38 .7h.7zM16.3 3.1H16zm6.2 18-1-.1zM61.6.1l1 .1zm-25 .6h.6-.7M43 21.5h.3zM1.6 15.4l-.2-.3h-.2zM75.7.9h-.3zm-48 20.4h.2zm-1.5 0h-.7zM27 1.5l-1.4.2zm14.1 20h.4zm2-21h-.3zm36.1.6h-.3zM50.6.2h.4zm-36.4 20V20l-.7-.1zM38.2.5h.7zm2-.1h-1 1.1M.9 14.2l.2.3zm1-6q.3 0 .6-.4zM18 20.8h.3zM5.6 6h-.3zm7.2 13.8-.6-.1h.7m31.3 1.6h.4zm5-21.1h.7zm2.8 0h-.4zm-.6 21.1H51h1.4zm-4.5.1h.3zM20.7 2.2h.4zm5.9-.7h-.4zM37.2.6h-.3zm-34 16 .6.4zM49 21.4h.3zM4 17.2l1 .5zm44 4.3h.3zm-1.4 0h.3zM53 0h.3zm-1 0h-.4z"/></svg>