<svg xmlns="http://www.w3.org/2000/svg" width="455" height="20" fill="none"><path fill="#e85643" d="M437.2 15.5h-1.6zM379 14v.2h-3.4 2c.5-.1.1-.2 1.4-.2m1.1 0 1.2.2h2.8-3.4zm6.2.1 1.1.1h-1.7l-.5.1V14zm4.6.2h-1.1zm-17.6-.3h1.1-5.6 3.7-.4zm27.8.6-.6-.1h.6M69.3 7.7q2 0 3.4.2h18l-.2.2h3.1L97 8c.8 0 .6.2 2 .1h-.6 3.7l5.1.1 1.7-.1h2-1.2 8.5v.1h2-.3 2l1.2.2c.7 0 0-.1.9-.2h11l6.8.2h3c.7 0 0-.1 1-.2l.5.1h4.4c1 0 1 .2 2.1.1h13.4l7.2.1h4l1.5.2v-.2h12.3c1.7 0 3.5 0 3.5.3h-.3c.7.1 2.2.3-1.4.2v.2h-1.2 3.7c1-.2-.7-.4 0-.5l3.4-.2h1.3c.8.1.8 0 1.6 0l3.1.1-1.1.2c1.9 0 1.8-.2 3-.2h2.6c1.6.2 3.6.4-.5.3q.2 0-.1.2c-.2 0-.7.1.4.2l.3-.2c1.7 0 2-.2 2.5-.3.2 0-.7 0-.2-.1.7 0 1.8 0 1.6.1H229c1.4 0 3 .2 2.7.3l.8-.1c-.7 0-1.5-.1-1.4-.2h4.2l1.5.1v-.1h1.8l2.9.1h1.7l2.9.1h9.1l7.6.2h1.1-1.1 5.7l2.5.2 2.3-.2h2.2l-.2.2 3-.3 1.2.3 1.4-.2h2.3v.2h11.3l3.7.2-.9-.1h8.9l3 .1h4.6c.8.1.6.2 1.7.1l.9.2.2-.2h3.2l1.1.2h.6c1-.2 1.5-.1 2.8-.1h5.6l1.4.1v.2c1.5 0 2.4-.2 4-.1h2.3l1.4.1h2.6-2l-.8.2h2.8l.5-.2h3l11 .2h1.7c1 0 2.9 0 3.9.2l1.7-.1 2.3.2h6.7l5.7.2.3-.1 3.2.1h4.3c1 .2.7.2 2.2.3-.1-.3 2.5 0 2.9 0h8.5l6.3.2 4.6.1 4.6.1 1.4.1v.1h5.9l3.6.2h1.5l1.9.1v.1l3.8.1h3l7.6.4 3.5.3h1.5c-.4.1.6.2 1 .3q.7.2 1 .5.2.1.3.4h-.7l1.8.2.6.2-.5.1c-.1 0 .3.1 0 .2h-.1l-2.9-.2h-2.7l-1 .1q-1.4 0-2.7-.2h-2.2l-1.8-.3c-1.7 0-.2.2-.3.2l2.9.1v.1l2.7.2v-.1l3 .3v.1l2.6.2-2-.3q-.2-.2 1.8-.2l1.4.3h-1c0 .2 1.3.3 1 .4l-3.3-.2-1.4.1h1.1c.4-.1-.4-.2-.2-.2h-2.7l-.8-.2-1.4-.2c-.3.1.5.2.2.2-.1 0-1.2 0-1 .1-1.8 0-3-.2-4.6-.3l1.7.2-3-.1h-2.6l1.1.3-3.7-.2c-2.2-.1-2.6 0-3.6-.3l1.6-.2h-3.6l.6-.2q-2.4 0-2 .3H422v.1h-1.8l-.8-.2h-2.5c.4.1 0 .2 0 .3h-4.8l-3.2-.1h1.6q1 0 .7-.2l4 .2.5-.1s-.7-.1-.4-.2h1-2.2l-4.9.1-.5-.1-.3.2c-1.7 0-3.6 0-3.9-.2l2.2.1.6-.2h5.7l-.6-.2 2.9.2 5.2.2 1.5-.1-2.3-.2h2.9c-.9-.1.5-.2-1-.3l.4.2h-1.8c-1.4 0-1.1 0-1 .2q-1.3 0-1.2-.1c.1 0 .7-.1.3-.1h-6.5c0-.1-.3-.2.6-.2h1.7l-1.4-.1h-2l.5.2H409c0-.1.3-.2-.5-.3l-.6.2-1.6-.1H404l.9.1c1.9 0 2.6 0 3.9.2h2.5l.6.2-1.6-.1h-1.8l-.3-.1-1.6-.1h-2l-3.2-.3.6.2h1.5l2.2.3h-4l-3.1-.2c-1.1 0-3.6 0-4.2-.2h.4l-1-.2-1.7.3h1.2s-.3 0 0 0h-1.7l1.4.2h.3V14c.1 0 1.6 0 1.5.1h-.2c.2.1 1.5.2 0 .2h-1.3l1-.1c-2.6 0-4-.2-5.9-.4l-1.2.1-1.4.1s-.3-.2.3-.2h4.9l-.5-.1h2.8l-2.5-.1h-1.5l.4-.1s-1.1 0-1-.2l-1 .2.4.1h-1.8 1.2-3.9l-.5.1H380h1.7q.4-.2-1.1-.2H379l1 .2h-1.5l-.1.1-2.3.1-1.4-.2-1.5.1 1.2.2h-1.1q-.6-.2 0-.2l-1.2.1h-1l-1.8-.1h1.7c.2-.2 1-.3-.5-.4l1-.1 1.4.1 1.2-.1c.8 0 .7.2 2 .2l-.3.1h1.5l-.6-.2 2.3-.1h-3s.1-.1-.9-.1H371l.8-.2 1.1.2.3-.1h1.8l.4-.1-.5-.1v-.2l-2.8-.1q-.3-.1.8-.2h3.2l.6.3c1.4 0 1-.1 1.8-.2h2.1l-1.6.1 2 .1.8-.1h4.4-1l.5.2h1.4l1 .1 2.7.1h1.8-1.2l.6-.2h-3.5 6q.8 0 1.4.2l-2.8.1c.7 0 .3.2 1.5.1l2-.1h3.3q-1.4 0-2.6-.2h.3c-3.2-.2-.8-.3.5-.3l1.5.3c1 0 .6-.1.3-.2h2.3v.2h2.3l-1.2-.1q3.6 0 4-.2l-1.5.1-.8-.2 1.1-.1h-1.7l-1 .2h.5-5.7l-.1-.2 1.2.1.8-.1h.3l2.3.1q-1-.2-4.3-.2h-3.1.3-2.4l-.1.1h-2.8l.5-.1h2.3l-.6-.2h-1.7l-.6-.2h-1.7s1.6 0 1.1.1H388v.1h-1.8c.8.1 1.7.2.3.2l-1.4-.1-.4-.2s.6 0 .4-.1h-6.7l1.1.1-.6.1h-1.7l.3.2-2-.1 1-.2q.5 0-.4-.3h1.1l-2.3-.2.6.3h-3.7l.3-.1H368l-5.8.3-.9-.2h-1.6c-.5 0-.3.2-1.5.2l.3-.2-2 .1h-2.8.3l-2-.1h-2.7l-2.1-.1v.1h-2.9v-.1h-1.1v-.2H341l1-.1h-1c-.5-.1.5-.2.2-.2h-3.6l-2.3-.1h1.1l-.5.3h-2l-2-.1-1.8-.1-.5-.2h-4l-4.5.1.6-.4H320v.2l-2-.1h-2l1.7.1v.2l4 .3h-1.4l-.3-.2h-5.4l-.8-.2.5-.1h1.1l-4.2-.2c-1.3 0-.3.1-.3.3l-1.4-.1H301c-.9 0-1.1.2-2.3.2l-.8-.2h3.4v-.1l-1.2-.2c.2.1-1.2.1-.5.3l-2.3-.2-1.7.4-.8-.2-3.4-.2v-.1c-.8 0-1.7 0-1.4.1l2.1.1c.6 0 .2.1.9.2h-1l-1.8-.1h-2l-.5-.2h1.1l-3.4-.1 1.2.3-2.3-.2v.3l-1.2-.3c1.7 0 1.3 0 .3-.2H281l.5.2h-1.7l-2.8-.2c-.2 0 1.7.2 1.1.2h-1.6l.9.1q1.6 0 1.3.1l-2.2-.1h-1.7 1.1l-.6-.3h-4l.6.1c0 .1-.8.1 0 .2h-2.2l.5-.1h-.5 1.1v-.2H269v.2l-3.4-.1h.3q-1.2.4 2.6.4l-1.2-.2h1.4q1.1 0 .9.2h1.7l2.3.1h-3.4v.2l-1.2-.1h-1.1l.6-.1h-2.9a32 32 0 0 0 6 .1h.5l2.6.2-.5-.2h4c1.9 0 .1.2.5.2 1.9.1 1.8 0 3-.1h4.1l5.9.2-1.7-.2h2.8v.2h2.8v-.1h3.4l-1.7-.2 2.3.1 2.6.3.3-.1h4.5v.1h1.4l3 .1-.4.1h2.7v-.1h3.2c.6 0 .2.1.3.2h-2.9c0 .1 1.9.2 1.8.3h-1.7l.5.1h2.2c.5 0 0-.1.2-.2h.4c.1 0-.5-.1-.4-.2h.5v-.2h4-1.2l1.1.2s-.2-.1.3-.1h4.8c-.6 0-2.4.1-1.6.2h5-.6c-.8.1-1.8 0-1.7.2h2.9v.1h1.7l-.6.1h-.5.5q.1.1 0 .2h.3l.3-.1h-.6.6c1.6 0-.1-.2-.4-.3h.4c0-.1-1-.2-.5-.3s1.6 0 1.3.1q-.2.1 1.5.3c.2-.1-1.6-.2-.6-.2h2.8l1.7-.1q-1.3.2 1.7.3l-.5.2 3.9.1.6.1.5-.1-3.9-.1-.6-.4h1.1-2.2 8.5q-.1.3-1.1.4l1.4.1c.7 0 0 0 .4-.2a22 22 0 0 1 5-.1h8.4l-1.1.2h7.4c-.3 0-1.5.2.6.2l-.6-.2h3.4-.3l1.3.1c.6.1.3.2 1.8.2-.6 0-.1 0-.1.1H372h1.1-2.1l1-.1h-1.4c-.8 0-1.3.1.4 0-.5.1-.4.2-1 .2h-3c.2-.1-.5-.2-1-.2h-1.3l1.5.3h3.7c-1.3.2 1.2.5-1 .5h-1.3l.6.2h1l-.8.1-2.5-.4-.6.1H362v-.2h-2l-2.3-.2-.3.2-1.6-.1-1.1.4h-.6l-3.1-.1.8-.1h1.1c.4 0 .4-.2 1.2-.2l-1-.1.4-.1h-2.3l-1 .1c-.4-.1-1.4-.2-1.2-.4l-2 .3-1.5.1h1.2c0 .1-.4.3 0 .4-1.1 0-.9-.2-2.3-.2l.6.1h-2.3 1.1l-.5-.2h2.8c-.2 0-1.4-.1-1-.3h1c-2.2 0-2.7 0-2.8.2h-1.7l.3-.1h.8l-.6-.2-2-.1h1c.3.2 1.2.3-1.7.3v.1h1.6c.3.1-1.4.1-2.5.2-.2 0 0 .1-.3.2l-2-.2h-3.6 2.2l.6-.3 2.2-.1s-.8-.1 0-.2h-2.2l-.3.2-2.6-.1 1.2.2H332l-1.2.1c.5-.1 1.6-.2 0-.4l2-.1c1 0 3.1.2 3.1 0h-3l-3.2-.2H325l2.9.1v.1h.8l.9.2h-6.2 5c.7 0-2.1.2-1 .3h-1.7l.5-.1-3.6-.1c-.7-.1 0-.1-.4-.2l-2.5-.3.3.2h-1 1.7s1.3.2-.5.2h-3.5v-.2h-2.9l1-.1h-.3c.3-.1 1.2-.1 1-.2l-1.7.2-1.7-.1.6.2h-2.2v.1h-2.6.3-4.2.2l-1.7-.1.3.2 1.4.2-3.1-.2h-2l-1.4-.2-1.4.1h-1.1v-.1l-1.2-.2-.6-.2h-2.2l1.1-.2h-2.2s.2-.1-.9-.2h-2.6c-.1.2.7.2 1.3.3l-.1.2-1.2-.2h-1v-.1h-3l-.8.3-.3-.2h-5 1l-.5-.2h1.7q-.6 0 0 0l-2.2-.2h-1.8c1.7 0 3 .1 1.4.2H272l.6.3h1.7v-.1h1.1l-1 .1 1 .1-1.4.2-3-.1h-.6l.5-.1-2.3-.1c0-.2.4-.2 2-.3h1.1-4.2l-.9-.1h-2.1q-1 0 .1.2h-3.9 2.8l-1.1.2h2.8l-1.1.1h-1.7l2.3.2-3.4-.1-2-.4h-2l-.6-.2h2.9c0 .1-.3.2 1.1.2-1-.2.2-.2 1.1-.3H259h2.8v-.2h-1.4l-2.7.1c-2 0-.2-.2-.5-.3l-1.3.1c-.3.1 0 .2-1.4.1l2.2.1-1.1.2 1.1.3H255c0-.1 0-.2-1-.2h-.5l-.3-.1-2.2.1h2q1.2 0 .8.2h-1.1 5c.1.1-.9 0-1.3.1-.5 0-.3.2-1.1.2-1.8 0-.3-.1-.4-.1l-3.6-.2h-2.8l-2 .1-.3-.1h-2.6c0-.1.4-.3-.8-.4l-2.6.1h1.7-.4q1.3.2 1 .3h-2.3v.1h-4c0-.1-.2-.2 1.2-.1l.6-.3c-1.5 0-4 0-4 .2h-2q-1.5 0 0 0c1.2-.1 2.2 0 1.9-.2-2.4 0-2.5.2-4.7.2h-7.4l-3.2-.1-1.1-.2h1v-.2h1.5l3.1.1h-2l-1.4.1h4.3l1.4-.1h-2.6l-.8-.2 3.4.1v-.2h-4l-.8.2c-2 0-1.3-.1-.3-.2h-2.6l-.3.1-3.6.1.8-.2h2.8-2.5l-.3-.2h-1.1l-.5.1c.2.2.5.2-.6.2l.5.1h-1.7.6-2.3 1.1l-.5.3-.6-.2-2.2-.2h1.6v-.1h-6.7l1 .1-2.5.1H199l-1.2.2c-1.6 0-.2-.1-.6-.2h-5.6l1.4.1h-3.1.6c-.8-.1-2-.1-1.7-.2h-7.1l.3.1h-1.7q.1-.1-1.2-.4h2.3l-.6-.1H178l.9.2c.6.1 1 .1 0 .2l-2.6-.2v.1H175v.1l-1.2-.1h-7.3c-.3 0 1.1-.2.5-.2l1.2-.1c1.1 0 .2.1 0 .1l-1.2.2c2 0 3.6 0 3.4-.2h2.3l-.6-.2h-3.9c-.3-.2 1.8-.1 1.6-.3l-.9.1-2.4.1v.2h-1.2l.6-.2h-5.1 2.6l2 .2-.6.2-1.2-.2h-1.1l-.3-.1-1.1.1-1-.1h-3.8c-.3 0-.3.2-1.7.2l-.3-.2H153l2.2-.1h-2.6l-2 .2h-3l-2-.1h2.8v-.2q3.3 0-.3-.2c-.5 0-.4.1-.8.2h-1.7l-.6.2h-1.7q-1.6 0-1.7.2h-2.2l.5-.2q-.8 0-1.7-.3h-2.5l-.6-.2q-1.4 0-.3.1l2.3.2h1.1l-.5.2-1.5-.1h-4.8.6-1.7v.3c-1 0-.2-.2-.9-.1h-10.1l-8-.1c-1.8 0-4.2 0-5.3-.2h1c-1.7-.1-2.5-.3-4.5-.2h2.3l-.5.2h-3.7l-2-.2v.1H96c1 .2 2.5 0 2.5.2H92c-1-.1-1-.2-.9-.3l-.6.1-4.1-.1h-2.1l.6-.2-1.7.1.5.1h-4.3l-1.9-.1q.1.1-1.7.2v-.2l-3.3.1h1l-.8-.3.3.2h-6.3c.6 0 .1 0 0-.1h2.9l-1.2-.2h2.3-1.1v-.1h-4.3l.3.3c-1.4 0-1.9 0-2.8-.2h-1.7 1.1c-.7.1-.4.2-.9.2-.5.1-1 0 0 .2l3.2-.2s.2.1-1.1.1v.2h-2.8v-.1H52l1.2-.1h-4 .5-2.2l.5-.1h-3.3v-.1h-6.3l1 .2h1.3l-1.4.1H35l.3-.1h-1.1l-7.3.1h-7.7l-2.6-.1h-4l-2.8-.1H8.5v-.1H6.8q1.8 0 1.7-.1h1.1c.2-.1.7-.1-.3-.2H4.5l2.2-.2q-2 0-1.7-.2H3.7c-.8 0-.7.2-2 .1H2c-.7-.1 0-.2.1-.2l-.7-.1L0 9.3V9h.8-.3H33l1.2.1-.3-.1h7.5l1.8.2c2 0 2.2-.1 3.4-.2h8l6.7.1H75l.6.1h.8L74.7 9h8.5-.6l1.7-.1 2 .1H86h5.7l4.2-.1 13 .1h4.9l-1.2-.2h2.3l.8.2.9-.3c1.7.1.5.2.6.3H129q1.2 0 1.1.2h2.3v-.1h1V9l1.8.1c.1-.1 1.6-.2 1.7 0h-1.2 1.2v.1l2.3-.1h1.4q2.3 0 2-.2l1.7.1 2 .1h.8-1.1l-1-.2h-3.6c.5 0 .5.1-.8.2l-.3-.3-2 .2h.3-4c.1-.2 0-.3-1.4-.4h-2l1.7.1V9h-5.1q-1.3-.1-1.1-.2H125c0 .1.1.2-1.1.3v-.2h-2.3v-.2H120v.1h-2l-2.6-.1.3-.2h-2c-.3.2 1.9.3 1.7.4h-4 1.2l-1.5-.2h-1.3c1 0 1.6-.2.2-.3l-.2.2h-2.3l-.5.2c-1.8 0-.8-.1-.1-.2-1.5-.2.7 0 1.5 0h.2c-.7-.2-2.1-.2-3.3-.2l.5.2h-1.7l1.2.2h-3.5c-.3-.1 1.3-.2 2.3-.2l-2.3-.1v.1h-4.5l-2 .3-2-.1H95l.6-.2-3.7.2-1.9-.2h-1.2l.6.1h-2l.3.1H86l.6-.2-2.3.2.3-.2-1.5-.1h2.3l-2.6-.1-2 .1h-1v.2h-1.2l.6-.3-2.6.3H74l-1.1-.1h-2l-4-.2 1-.2-1.7-.1q-1.2 0-1.1-.2h-1.2c1-.1 1.6-.2 3.2-.1zm291.3 6h1.4-.6 2.3l.6.1H362v.1h-5.1l1.6-.2-1-.1 1.6-.1q.8 0 1.5.2m3.7.3h-.3l-.9-.1zm3.4 0h.5zm19.8.3h.5zm5.1 0h-1.1zm10.2.2h.6zm-51-.7h.6zm24.4.3h.5zm-50.5-.7h-1l-.6-.1zm15.3 0v.1h1.2v.1H341l-.5-.2zm79.2 1.4c1 0 2 0 1.8.1h-1.8m-53-1-1.2.1v-.1zm-49.4-.5h-1.1zm81 1 1.7.1zm-70.8-1v.1h-.3zm1.7.1h-.6v-.1zm89.4 1.4h-1v-.2h1zm5.8 0h1.1-3.4v-.1zM350 13.7h-1.7l-1.1-.2h2.8zm-39-.7q-.7 0-.6.2h-1.6V13zm9.1.3-1.1-.1zm10.2 0h.5zm70.8 1h3.4l-1.4.1zm-17.6-.4q-.7 0-.6.2h-.5v-.2zm-68.5-.7h.5zm7.4 0h.5zm-36.9-.3-2.8-.1zm149.3 1.6h-.6l-1.2.1h-2.5 1.1v.3h-1.1l1.7.1h-.3c.9-.1 1.1 0 1.7-.2.4 0 2.8-.1 1.2-.3M294.6 13h-1.7v-.3h1.1zm2.8 0h-.6l-.5-.2h1zm98 1.2h.5zm5 0h-1zm29.5.7-1.7-.2zm-117.2-1.8h-1.1zm7.4 0h.5zm5 .1H323zm-53.2-.5h-2.4l-2.7-.1h4.6zm3.4 0h-1.1zm63 .5-1.8.1zm9 0h1q.8.2.7.3c-1.5 0-1 0-1.2-.2-.2 0-.7 0-.6-.2m-86.1-.7h-2.3l1.1-.1zm54.3.6h.6zm81 1h-1.1zM278 12.5l-1 .1v-.1zm165.9 2.7h.6zm-185.7-2.8-1.7-.1zm119 1.3h-.6zm-58.9-.8h.5zm4 0h.5zm6.7.2h-.6zm-46.4-.5h.5zm2.3 0h.5zm65.2.6c.3 0 1.5 0 1 .1zm-49.4-.5h1.1zm5.7 0h-.6zM406.6 14h1.7v.2h-1.1zm-204-2h-.2l-.9-.1h1.2m112.2.7h.6l-.8.1h-1zm-33.4-.2h-1.1l.8-.1zm-69.7-.6h.6zm56.1.2q-.7 0 0 0c.9.2 1.9.2 1.8.3l-2.9-.1V12zm168.2 2.4 1.1.2 3.5.2c-1.4-.2-1.8-.4-4.6-.4M330.2 13h-1.1zm-49.3-.7h-1.6.4c0 .1-.6.1-.4.2h-2.6l-1.4-.1q-.1-.1 1.1-.1h.3l2 .1h.6l.5-.2h.6zm82.2 1h1.2zm-67.4-.8h1.7zm7.6-.9-.9.1h-1q.4.2 1.6.2c.4 0-.2.1.6.1l-1.7.1-.5.2c1.2.1 2 .3 4 .3h-.6 2.2v.1h2.9-2.9v-.2h-1.7l-.8-.1H303h2.8l-1.2-.2 1.5.1h3.1c-1.8 0-.9-.2-1.7-.3h1.7l-.6-.1h-4.5c.1 0 1.2 0 1.1-.1-1.3 0-1.2-.1-2-.2m93.5 2.1q-1 0-.9.2h1.7zm-98.9-1.2h1.2v-.1zm67 .7 1.3.2h1.5l-1.5-.2zm15.5.4h-.3.6zm17.7.2h2.4zM270.2 12l.6.2h1.7zm-64.8-.4.8.1h-1.7zm103.9.9h1.1zm74.7 1h1.7l-.8-.1zm-194.8-1.9h-1.1zm96.3.7h-2.3v-.1zm-91.8-.7h-.8zm46.5.3h-.6zm187.4 2.3h1.1zm-73-1.2h-.5zm-57.8-.6h-.5zm4.6 0h.5zm52 0-1 .3 1 .1c.5 0 .2 0 .4.1l.8-.1h2.2c.3.1-1.2 0-1 .1l1.3.1.9-.2h4.5c0 .2.8.2 0 .3h1.8q-1.2-.2-1.2-.4-2 0-1.7.1l-5.1-.2-.3.1c-1 0-.5 0-1-.2zM216 11.9h.5zm-38.6-.2h-1.1l.8-.1zm147.8 1q0 .2 1.7.2 0-.2-1.7-.2m14.8.3h-.6zm-49.8-.6c.4 0 1.8 0 1.6.1zm-120.7-.8h.5zm47 .3h-1.7v-.1zm-80.4-.5h-.6zM427 14c-1.3 0-1 0-1 .1h.5l.6.2zm-1.6.2h-.5zM187 11.6h-.5zM350.1 13h-.6zm-57.8-.6h.5zM448.6 15h-.5zm-138.2-2.6h1.1zm70.8 1h-.5zm1.7-.1h-.5l1.4.1h2.4l-1-.1-2.3-.2zm8 .2h-.6zm-116.7-1.3H273zm-46-.4h-.5zm122.5 1h1.1zM153 11.4h.5zm5.6 0H157zm141 .7H293h1.6q.1.1 0 .1c.7.1 1.4.2 1.2.3h4.5l.6-.3H299zm-52-.1c0-.2-2.3-.2-2.9 0h.8c1.7 0 0-.2 2 0m-43.7-.3h.6zm19.9.1h.5zm-74.5-.4h-1.5V11h2.3zm89.7.5h-1 2.3c-.3-.1.5-.2.4-.3zm184.7 2.3h2.3-.8l-.6-.1zm-268.5-2.8h.6zm8 0H162v-.1zm-27.2-.1h.5zm48.6-.1 1.2.1h-2.3v.2h4.3c-.2-.2-1-.3-.9-.3zm46 .6h1.6zm-33.5-.9c-1.9 0-1.9.2-4 .2l1.2.2H188h2.2v.3h1.7v-.1h1.1v-.1h1.1v-.1h1.2-.5l.8-.1h1.4q-1.8-.1 0-.3m218.4 3h-.8zh1.4zm12.7.3h1zm-130.3-1.8h-1.7zm-90.6-1q.2.3-2.2.3v-.2zm235.1 3.3h.5zm-261.7-3.3h1.7zm-44.2-.2H135zm17 0h.6zm280.4 3c0 .1 0 .2 1.7.3l1-.2zm2.7.3h-.5zM248 11.9h1.1zm-87.2-.6h-1.2zm149 1.1h2.2zm3.3 0h.6zm23.9.2 3.3.2v-.2zm-100.3-.8h1.1zm180.7 2 1 .2v-.1zm-128.6-1.6h-1.1zM10.2 10.6h1.2zm111.6-.3c1 .1 0 .1-.5.2-.3 0 .3.1-.2.1h-1.6l1.2.3h3.9v-.2h-1.1 1.7l-2.9-.2h2.9-1.7l.5-.2zm141.6 1.5h.6zM376 13h.8l.4.2.6-.1h1zm11.3.3h-.6zm-58.3-.9v.2h1.1l-.6-.2zm72 .6c0 .1.8.2.4.3-.3 0-2.4.2-2.2.3h4l-1.1-.1c-.8 0-.6-.1-.6-.2l1.2.1.5-.2zm-296.9-2h-1.7zm91.2.3v.2h1.7zm-.6.1h-.5zm-85-.4h-.5zm320 3.1 1 .1h.3-1.2m-316-3.3c.7 0-.2.2 1.2.2V11zm4 0H116l.6.2.5-.1h1.7c0-.2 1-.3 1.7-.4h-2.8zm188.7 1.5-1.1-.1q-.1 0 0-.1h1.6zm-37.5-.6.7.2h1c1.5.1 2.9 0 2.9-.2l-.9.1zm-93.4-.4h-.5zm92.3.6h.6zm50.4.4h.6zm4-.3-.3.1-.2.2c.2 0 .8 0 .5.2h1.7l-.6-.2 1.7-.1H324zm-230-1.2h.6zm8 .1H99zm235 1.7h.3zm74.7 1h.6zm8.6.2-1.4-.1-2 .1zM101.4 11h.5zm44.2.2h-.6zm98 .4c-.4.2 1.9.1 2.7.2h1.2l-1.1-.2zM26.9 10.1h-3.7l2.9.4h2.3l-.6-.3zm183.2 1.3h-.5zm52.1.1c0 .2 1.4.2 2.9.3 0-.2-1.3-.2-2.9-.3m-220.8-1h.5zm284.8 1.8h-.5zM230.5 11c0 .1-.3.2 1.1.2l-1.4.1h-.8l-2.8.2h4-.7l2.6-.1h1.4-.6l2.3-.1-3.4-.1zm-125.7-.1h.6zm-86.1-.5h1.7l.2.1h2.6q-2 0-2.3-.2zm-.6.1h-.5zm342.7 2.3h-.6zm-187-1.8 1 .2h2l-.4-.1zm213.6 2.2h1.2zM57.8 10q.1.2-.6.2H55l.8.3-.3-.2h4l-1.7-.1H60zm233.9 2h-.5zM20.9 9.7c-1.3 0-.8 0-1.2.1H18l1.1.3-2.8-.1h.6-1.7v.4H17v-.1h-1.1l1.6-.2 1.8-.2q1.5 0 1.6-.2m91.2 1h-.5zm90.1.5h1.1zm158 1.3h-5l1 .2.6-.1h3.5q.7 0-.1-.1m58 .2-1 .1-.9.1h-6.9v-.2l-2.2.2h-1 1l1.1.1q.2 0 0 .2h-1 1.6c-.4.1-1.3.1-1 .2h1.3q1 0 .8-.2l3.5.1h4.2l2-.1-1.2-.3h1.1zm-168.4-1.1h2.3l-.3-.1zm-123-.9 1.2.1zm263 2.4h1zm-249.3-2.3h.6zm42.4.3h-.5zm1.2 0h-.6zm151.2 1.1v.2h.6v-.2zm75.3 1.2 1.2.1zm15.4.2h-2l-1.2-.1-1.4.1h.6l1.1.2h4.6l.5-.1zm-140-1.8h-.5zm-176-1.2-.6.1h1.7zm319.3 3.3h-.5zm-218.5-2.8c-3.2 0-1.9.2.6.2zm-80.2-.4h-.8l2.3.1c-.7 0 0 0 0-.1zm2.6 0h1.7zm-44.7-.3v.2h-1.2H89v-.2zm300 2.6h-.5zm-294-2.6c.1-.2-1.1 0-1.8 0h-1.5c-.2 0-.8.1-.6.2h2.9l-.6-.2zm184.2 1.3h.5zm-40.2-.4h1zM13.3 10h-1.1c-.5 0-.1.1-.4.2-.2 0-1.2.1-1 .2h1.7V10h2.8zm94.9.7h-.6zm180.2 1 1.9.3h1.4l.6-.3zm145 2.4h-.6zm-80.5-1.5h-.5zM29.2 10.3h1.4-2.3zM311.5 12h2.3zm72 .8h.5zM181.2 11h-.5zm145 1.2h-.5zM183 11h-.5zm227.7 2.3 1.2.1zm-258.8-2.5h-.6zm49.2.1-2.2.2h1.7l1.1-.1c.4 0-.4-.1-.4-.2.1 0 1.2-.1-.7-.1zm252.7 3.9h.5zm-157.5-3.3h1.1v.3l-2-.1h-2.5 3.9v.2c1.5 0 1.3 0 1.2-.2l.6.2h2.3c-.3-.1-.6-.2 0-.2l-1-.1h-1.4zm-138.7-.7h-.6zm291.1 3.5H447v.1zm-189.2-2.9h1.7zm116.1 1.3h.6zm-157.4-1.5h1.1zm51.5.2-1.7.1h-1.7l1.7.1q1.8 0 1.7-.2m-46.4-.1-.6-.3H221zm1.7-.1h1zm47.5.2c1 0 .2.1.7.2h1.6l-2-.2zM183 11l1.5.1h.2zm2.3 0 4.5.1-.5-.1-1.8-.1-1-.2zm97.4.8h-.5zm-89-1-2.7.3h.7c.6-.1 2.4-.1 2-.2M8.6 10.3H6.2l2.2-.1m412.3 3.3h-.6zm-304.7-3h-.6zm-38-.1h1.2zm-43.6-.2h1.1zM316 12l-.5-.1zm-141.6-1.2h1.2zm206.2 2h-.5zm-61.7-.9.6.1h1.1l-1.4-.1zM95.7 10.3l-.6.1h1.7zM277 11.6h-.6zm-174.2-1c.3-.1-.8-.2 0-.2h2.6c-.6-.2-2.7 0-4.6-.1zm3.1-.1h.9zm49.8.1v.2h1.2v-.2zm1.8.2h1.7l-.9-.1zm-86.7-.5H72zM20.3 10l1.5.2c1 0 .9-.1.8-.2zm140 .8h-.6zM31.2 10c-.8 0-.8-.2-2.3 0l2 .1h1.3zm49.8.2h-1.2zm89.8.4-.3.1h1.7l-.6-.2zm-42-.2q-1 0-.8.1h1.1v-.1zm1.4 0h.6zm-84-.4H43h2.7l1.2.2-.6-.2H48l-1-.2zm134.5.8h-.6zm45.8 0h-1.7l1.5.2h1.4l-.6.2c3 0 2-.3-.6-.3m-173.3-.7h1.2zm362.8 3h.3l-2.8.1 1.1-.1zm-131-1.7h1.1zm58 .6-.8.1h1.1zm-235.3-1.6h1.1l-.8-.1zm47 .2h-.5zm95.7.5h.6zm7.5 0c-.6 0 .7.2 1 .2.5 0-.7-.2-1-.1M81 10.2c.8 0 .6 0 .6.2h1.2l-1.5-.3zm-40.1 0H42zm368.1 3h.5zm-172.1-2h1.6l-1-.1zm-7.5-1q-1.5-.2-2.8-.1h2.3c0 .1-.9.1-.6.2H227h1.7v.1h1.7c-.8 0-.5.1-.6.2h-1.1q-.7.1-.6.3c1.4 0 1.5-.2 1.7-.3 1.5 0 1.4.1 2.3.2q2.5.1 2.8-.1h4.6c-.3.1.8.1 1 .2h-.4l.5.2h-.5l1.7.1c-.5 0 .7-.1.4-.2-.4-.1-1.6-.2-1-.3h2.5l2-.1h-4.5l-1.8-.2v.1h-1.7l.6.1h-2.2l1-.2h-4.4l1 .2H231l.6-.2zm16.5 1h1.1zM116 10.4h-.6zm-43-.2h1.1zm292.3 2.2h.5zm-106.6-1.2q.6 0 .6.2l1.1-.1zM56.1 10.1h1.1zm351.1 3h-.5zm17.7.3 1.6.1zM24.9 10h-.6zm386 3h2l-3.5.1zm-262-2.5h-.5zm3.1-.1q-1 0-.8.2h.6l.5-.2zm268.8 3-.6-.1zM112 10.1h-1c-.1.2 0 .2 1.1.2zh1.1q.3-.1-1.1-.1m193.2 1.4h1.1zm-95.8-.8h1.2zm-42.4-.2h1.1zm144.3 1.1-1-.1h1.6zm-50.9-.6.6.2h1.7c-.1 0-1-.1-.5-.2h.7zM86.3 10h.3c-.1.1-.8.2-.5.2q2.2 0 .2-.2m134 1h-.5zm-37.4-.4h.6zM328 12h.6zm-40.7-.5h-3.4zM189.7 10h3.4l-.5.1h1.6c-.1.1.7.1 1 .2h-.2q.3 0 .4.2l-2-.1h-3.1c.3.1-.4.1-.4.2 0 0 .7 0 .4.2h1.1l-.6-.2h3.4l1.7.1c-.2-.1.7-.2 0-.4h4.6l-2.6-.1h-2.2c-1.5 0-.3-.1-.4-.2h3.4l-1.7-.1h-2.2.5-1l-.1.1c-1.9 0-1.7-.1-2.6-.2zm243.6 3.6h-.5zm-273-3h-.6zM31.9 9.8h-.8zh.9zm140.5.5h-.8v.1l1.7.1-.6-.2zm48 .4 3.3.1H222l1.1-.1-.8-.1zm-78.3-.5v.1h.6zM60.6 10c.2 0-1.2-.2-1.7-.1zm88.9.3h-.6zm-141-.6 1.6-.1zm241 1.1h-3q-1 0-.7.1l2.8.1h2.3zM388 12.5h-3zM109.3 10h1l.1.1h.6l-.6-.2zm45.9.4h-.6zM69 10h2.3zm134.8.6.5.1.9-.1zM74.2 10h-.6zm5.6 0h.6zm300.8 2.2h1.2c.5.2 1.2.2 1 .3h-1.6zM82.6 10h1.8zm15.6 0-.8.1h1.1zm9.4.1h-.6zm322.8 3.3h1.2zM253.7 11h1.2zm-128-.8h-.5zm-87.2-.4h.5zm147.5.5-1.4.1c-1 0-1.9 0-1.7.1h2.8zm-84.7-.2h-.5zM341 11.8h-1.2zm-189.8-1.5h-.6zm4 0h.5zm-81-.4h1.1zm299 2.3H371zM34.5 9.8h-.6zm147.3.7h-.6zM61.7 9.8h2.2zm282.6 2h-1.1zm76.5 1.3h.6V13zM17.5 9.7h-.6zm235.4 1h-4.3 1.7l-.6.1 2.6.1h.8l1.7-.2zm-86.5-.5c-.3 0-1.5.1-1 .2.3 0 1.6-.1 1-.2m94.4.7h-2.5l3.3.1zm-45-.3h1.1zm-47-.4H167l2.9.1zM111 10h.5zm146.7.4-1 .2-.7.3h2.8v-.1h-1.1zm-9.1.4h-.5zm205 3.4L452 14zM123.5 10l.6.1V10zm247 2.1h-1.1zM33.6 9.6l-.8.1h1.1zm179.3 1h.6zm-85-.7-.5.2h.6l1-.2zm256.6 2.4h-1zm-111-1.3h.6zm-127.1-1q-1.1 0-.9.2l2.3-.1zm132.2 1h-.5zm-126.3-.8.6-.2h-2.3zM107 10h-.5zm180.7 1h.6zm-34.5-.2H252v-.1zm-46.5-.4h-.6zm-28.9-.3h1.1zm95.7.7h-2.2zm115.6 1.4h.6zm-162.6-1.7h-.5zm169.4 1.8h.5zm-167.7-1.8h-.5zM0 9.6h.5zm414.6 3.2h1.7l-1.1-.2zM3.3 9.5h-.5zM422 13h1.1zm-176.8-2.2h-.5zM368.7 12h-.5v-.1zm-109.3-1.2h3.9-1.1 1.7l-.3-.1H261h1l-1-.1zm111 1.2h.5zm-56.1-.7h2.3zm66.9.9h-1.1V12zm-163.8-1.7h-.5zm164.4 1.7h.5zM87.2 9.8h-.6zm253.2 1.8h.5zm10.8-.1v.1l1.4.1-.3-.1h1.1zm80.4 1.6h-.6zM355 11.6l1.4.1h.3l-.6-.1zm-56.6-.5h.5zm-91.3-1 .6.1h.8q2 0 3.7.3l-.6-.2h-1l.2-.2-1.7-.1zM373.8 12h.5zM171 10.1l.9.1h.2zm237.3 2.4.8.1h.9zM282 11h.6zM104.2 9.7h1.7zm185.2 1.2h-1.7zm55.5.7h1.1zm2.8 0h1.2zM201.6 10l.6.4.5-.2h3.4l-.5.1h1l-.5-.1h-1.7V10zm3.4.4h-.6zm58.9.4h.5zm-90.6-.7h-.6zm5-.2s.8.1.5.2c-.2 0-1 .1.7.1l.5-.2zm47.6.5h-1.7l1.7.1zm112.8 1h.5zm83.2 1.4h-.5zm-116.6-1.7h1.1zm-136.6-1h.6zm48.4-.3q-.6 0-.2.1h-1.2l-1.1.2h2.3v-.2q1.4.1 1.1.2c-1.7 0-1.6.1-2.3.2l2.3.1h1.7l-1.7-.2q1.9-.1 1.7.1h1.7l-2.5-.2zm106.3 1.5h-.6v-.1zm-141.7-1.2h-.5zm91.3.7h.5zm-85.6-.7 1.7.1v-.1zm150.2 1.3h-.3l-.9-.1h.6zM3.9 9.3H5zm414 3.4h-.5zm-311-3h-.4zM293.2 11l.9-.1zM70.7 9.6h-.5zM443 13.4h-.5zM308.7 11h.5zm-95.8-.8h-.5zm100.8.5c-.5.2-.2.3-2.2.3q1.1 0 .5-.2zm-217-1.3H98v.2h.6l.5-.1zm5.2.2h-.6zm81 .3 2.3.1h1l-2-.1zm166.5 1.5h-.5zm10.2.1h1.1-1.2M161.9 10h1.2zm90 .5h1.8l1.7.2-.6-.3H252m-83.2-.6c-1.7 0-1.8 0-1.7.2q1.9 0 1.7-.2m44.8.4 1.7.1zm97.4.9h-.6V11zm-138.8-1h2.3q0-.2-.9-.2zm156.6 1 .9.2h-1.2v-.1zm16.4.2h-2.5l4.6.2zm-147-1.2h-.5zm165.5 1.6h3.1-.6l-2.5-.3zm-233.4-2h1.1zm225.5 1.8h-.6zm-103.7-1h-.6zM123 9.5v.2h1v-.1zm36.8.2s-.1.2 1.1.1h.5c.5 0 1.3 0 1.2-.1zM393 11.9h1.1zm-161-1.6h-.5zm-85-.6h.7zm-45-.2h-.6zM303.5 11h-.5zM169.8 9.7v.2h1.2zm209.1 2h1.2zM221.7 10h-1.4l2 .2h.1c.9 0 .2-.1-.7-.2m53 .6h-1.2zm-48.8-.4h-.5zm100.3.9h.5zM186.8 9.9h1.7zm47 .4h1.8l-1.7-.1m113.4 1h2.2zm-51.6-.8q-1.8 0-1.7.3l.6-.1h1.6zm-49.9-.2h-.5zm108.3 1 1.1.1zM212.4 10h1.2zm46 .1v.2h1.6-.2q-.4 0-.4-.2zm9 .3h-.6zm64 .6h-.6zM101.9 9.4h1.1zm2.8 0h1.2zm136 .8h1zM137 9.5h.6zM323.4 11h-.6zM203.5 9.7h-3.9c-.6 0-.3.2-.9.2h1.7-.3 3.2s1.5-.1.2-.2m-44.4-.2-1.1.2h1.7v-.2zm198.8 1.8h1.1zm9.4 0h-2l1.4.2h.9zm2.5.2h-.5zm-62.3-.8 1.7.1-.3-.2-.8-.1zM129 9.5h-.5zm43.1 0 1.7.1.6.2v-.2zm5 .3h-.4zm156.2 1.1-.9.1h1.2zM231 10l1.4.2h.3q-.7 0-.5-.1zm-121.8-.5h1.2zm3.1 0 .3-.2h-1.7zm242.8 1.9h2.8-.8l-1.1-.1zm-283.5-2 .8-.1-1.7-.1zm45 0-.6.1q1.4 0 1.1-.1zm61.2.3 2 .2h.2l-.5-.2zM328 10.8l-.8.1h1.1zM143.2 9.5h-.5zm93 .5h.5zm1 0 2.3.1zm112.2 1h1.7-1.1zm2.9.1h1.1zM108.7 9.2c-1 0-2.4.1-.9.2.5 0 1.1-.1.9-.2m137.6 1h1.1zm51.5.4h1.2zm62.3.7h1.2zM169.5 9.6h-.8 1.1zm43.1.2h-4.8l1.4.1zM45.2 9h-.5zm228.3 1.1h2.3l-.6.2h2.3q.1-.3-3.4-.3zm-167.1-1h-3.1q-1.8 0-1.4.2l2.6-.1zm179 1.3h-.5zM151 9.5h.6l-1.1-.2zm47 .3h-.5zm94.7.6h1.1zM437 12.7h-.5zm-175-2.5h-.5zm-39.3-.5h-2.2 2.5l-1.7.2h3.4-1.2q.4-.2-.8-.2m-42.2 0h2.3v-.1zm5 0-1.6-.1zm94.4.7 1.4-.1H279zm-36-.6.6.1 1.1.1H243h4.5l-.5-.2zm-80.4-.3h-.6zm140.5 1h1.1zm-138.3-1h-.5zm141.1 1h-.5zm4.5 0h1.7zm-135.9-1h1.1zm145.9 1q-2.3 0-2 .2l1.1-.1h2.3zm1.4.2h-.5zM186.2 9.4c.8.1.6.2.6.3q2 0 1.7-.2zm-38.5 0h1.2zm44 0c-1.6.1 0 .2 1.4.3l.5-.2h-1.4zm49.5.6h-.5zm-86.1-.6h-.5zm93.5.5v.2h.5v-.2zm108.7 1.2h-.5zm2.8 0h-.5zm-24.3-.4-.5.1h1.1zm-43-.4 1 .1zm6.7 0h1.2zm61.8.8h-.6zM164.7 9.4h-.5zm89.5.6h1.2zm6.3 0 1 .1c.6 0-.7-.2-1-.1m-79.4-.6q-1.2 0-1 .1h1.6c-.2 0-.7 0-.6-.1m56.7.3H235l-.3.2h4.2zm57.8.6h-.6zm-32.9-.3h.6zm67.4.7h-.5zm-98.5-1h1.1zm-79.3-.5h.5zm48.7.3c-1-.3-3.3-.1-1.4 0zm8.5 0-1.7.1zm85.5.7h-.5zM171.5 9l-2.8.1-.3-.1h-3.7.6l-6.8.2c1.6.2 2.7 0 4.5 0l.6.1h1.7l.3.1 2.5-.1.6.1h.8l2.3-.1h10.5l-1.8-.1-1.4-.2-.8.2q-3.7.1-4-.1H171zm137.7 1.4 1.1.1zm-124.4-1h-.8l1.1.1v-.1zM150.5 9h.6l-2.8.1.8.2h5.4q.2-.2-.8-.2h-2V9zm65.8.5 1.7.2-.6-.3zm48 .5h-.4zm-71.8-.5h1.1zm-39.1-.7-1.2.2h1.7l2.9.1-.6.2h1.7l-.8-.2h-.4l-1.4-.1c-.4 0 0-.1-.3-.2zm144.4 1.5h1.2zm-103-1v.2l1-.1zm11.8.1h1.7zm15.9 0v.2q1.2 0 1.1-.1zm69.7.7h-3.4zm-94-.7h.5zm6.2 0-2.9-.1v.2l4-.1-.6-.2zM120.5 9h.6zm48.2.3h-.6V9h.6m43.6.2h-.6zM72.4 8.7h.6zm57.7.2h-.5zm50.5.3h-1.7zm6.2-.2q-3.1 0-4 .2l5.1-.1h-2.2zm42.5.3v.2h.6v-.2zm-120.1-.5H108zm99.7.5h1.1zM70.7 8.6h.5zm10.7 0h-1.1zM274 9.8h-.5zm-42.4-.4 1.7.1zm11.8 0 .6.2h1.1l-1.4-.2zm111.7 1.2h-.6zm-232.8-2 .5.2zm7.8.2h-1.6zm89.6.4v.2h1v-.1l-.8-.1zM100 8.7h.6zm89.5.4h-.5zm47.6.2v.2h1.2l-.9-.1zm-38-.3-.5.2h1.1V9zm51.6.4H248q.8.3 2.2.2zM206.6 9l-.5.3q1.8 0 1.6-.3zm-39 0h.5zm-91.8-.6v.2h.5v-.2zM378.3 11h-.5zM175.2 9h-2c1 0 2.5 0 2.3.2l1-.2zm50.1.4h.6zm-87.2-.6h1.1zm96.9.7h1.7zm51 .3 2.8.2v-.2zm5 0v.2h1.7c-.5-.1-.8-.2-1.7-.2m-49.8-.3h-.6zm4.5 0 1.1.1zm-128-.8.8.1h.3zM312 10h1zm-97-1c-2.3 0-.6.2 0 .2zM77.4 8.5H77zm100.3.5h-.5zm53.3.3h-.6zm-81-.5h-.6zm92.9.6h-.6zm52 .4h.7zm2.3 0h-.5zM129 8.8h1.1zm136.5.8 1.2.1-.9-.1zm-172.8-1h.6zm95.8.5h-.6zm1.1 0h-.5zm51.6.3h.5zm-114.5-.7h1.2zm96.3.6h1.2zM91 8.4h1.2zm208 1.3v.1h.5zM125.5 8.5h.6zm-46-.1H79zm110.6.5h1.7zm94.6.7h1.1zM199.2 9l1.2.1zm-27.7-.2h-2.3zM130 8.5h1.1zm88.4.5h1.1zm53.8.5h1.2zm-89.5-.7h-.5zm-71.4-.4h1.7zm135.4.8h1.2zm10.8 0v.1h1.7zM216.2 9h1.2zM77.4 8.3H77zm250.4 1.6 1.1.1-.8-.1zM146.5 8.6h-1 1.6l.3-.2zm134.3.9h-.6zM102.9 8.4h-.5zm2.3 0h1.2zm95.2.4H198zm42.5.3v.1h1zM80.8 8.2h-.5zM227 9h-.6zm59.5.5h-.6zm-47-.5h.5zM125 8.4h1.2zm94 .5h1.2zm3.5 0h-1.7zm-73.7-.4h-.5zm9 0h1.2zm-39-.2h-.6zm45.9.3h-.6zm-37.4-.2h1.1l-.3-.1zM75.7 8h-.5zm161.5 1h1.1v-.2h-.3zm4.5 0h-.5zM63.8 7.8l.6.2h-1.1L62 7.8zm7.4.2h-.5zm61.7.2h1.2zm57.3.3h.5zm9.6.1h-.6zm17.5.1h-.5zm-73.6-.5h-1.1zm-76-.4h-.5zm74.3.4h-1.7zm-72.5-.4h-.6zm2.3 0h-.6zm171.6.9h.6zm-1.7 0h-.6v-.2h.6z"/><path fill="#e85643" d="m25.7 14.4 1.7-.3zM82 9.3V9l2-.2h1.4q-1.2 0-2 .2zm-1 .2-1.2-.2.6-.1zm-6 .3.5-.1.5-.2v.3zm-4.4.2 1-.2v.2zm17-1.1h-1.1c.7-.2 2.3-.2 3.7-.3l1.7-.1-1.4.1-.2.1h-2l.3.1zm-26.9 1.8h.6l-.6.1m321-2.8-3.2-.1h-9.1l-3.5-.1-5-.1h.3-2.4l-.6-.1H353h.6-3.6c-2.3 0-3.5 0-5-.2h-3.5l1.1.2h-8.2v-.2l-2 .1.3-.1-1.9.1q-.6 0-1-.3c-.8 0-.2.2-1 .2h-1.3l-1.7.1h-7.6l-6.6-.2h-2.8c-.7.1 0 .2-1 .2H303c-1-.1-.9-.2-2-.2v.1h-2.5q-4 .2-8.2 0l-2.3.1h-10.9l-1.4-.2v.2h-6.2l-5.6.1c-1.7 0-3.4 0-3.5-.2h.3c-.6-.1-2.1-.2 1.3-.3V7c1.5 0 3.1 0 1.3-.1l-3.7.2c-1 .2.7.3.1.4l-3.4.2h-5.8l1.1-.2c-1.8 0-1.7.2-3 .3h-2.4c-1.5-.1-3.4-.4.5-.3q-.1 0 0-.2c.2 0 .8-.1-.3-.2l-.3.2c-1.6 0-2 .2-2.4.3-.2 0 .7.1.2.1-.7.1-1.8 0-1.6 0h-.5l-3 .1h-1.7l-3.5.1h-6.3c-1.3 0-2.8 0-2.5-.2l-.8.1c.6 0 1.4.1 1.3.2h-9.9l-1.7.1H209l-3.6.1H202c-2.7.2-4.8 0-7.4 0h-1.1l1 .2h-2.4l-3 .1-2.5-.1-2.2.2h-2.1l.2-.2-3 .4-1.1-.2-1.4.3h-2v-.1h-1.4l-2.8.1-3.6.1c-1.6 0-1.5.2-3.2.2V9h-3.6.9l-3 .3h-5.6l-3 .1v.1H143l-.2.2-3 .1-1.2-.2c-.5 0-.3.1-.5.2l-2.7.1-5.5.2h-1.4l-3.8.2h-2.2v.1H121l-2.5.2c-.1-.1 1-.1 2-.2l.7-.2-2.7.1-.5.3h-3c-3.7.3-6.8.5-10.5.6l-1.6.2H99l-1.6.2h-2.3L92 12c-1.3 0-1.8 0-3 .2l-.3-.1q-2.7.3-5.5.3l-.2.1c-1.4.2-1.8.1-3.1.2l-2.2.2h-4c.1.3-2.4.3-2.8.4-2 0-2.7.2-4.3.3l-4 .4-6 .5-4.5.3-4.3.4-1.4.1-5.7.6-3.4.4-1.5.2-2 .2v-.1l-3.5.4-2.8.4-7.4 1-3.2.4-1.5.3c.4-.2-.6 0-1 0-1.2-.1-1.3-.4-1.4-.7 0 0 .7-.1.5-.2l-1.6.3h-.5c-.2-.1.3-.2.4-.3s-.3 0 0-.2l4-.6V17l2.6-.3h-1.1l.8-.2 2.6-.4c1 0 1 0 2.1-.3h1.7c1.6-.2.2-.3.3-.3L22 16c-.8 0-2.1.2-2.6.4l-.5.1h-.6l-1.7.2v-.1l-2.8.4 2.2-.2-1.8.6c-.8 0-1.5.2-1.3 0 0 0 .9-.2.8-.3h-1l3.3-.6 1.4-.4c.4 0-.8.2-1.1.3s.4 0 .3.1L19 16h2.2c.3-.2-.5 0-.2-.2l1-.3c1.7-.3 2.7-.3 4.4-.5l1.4-.2c1-.3.3-.3 2.3-.5h-1l3.5-.4c2-.3 2.5-.4 3.5-.3l-1.6.4 3.6-.4-.5.2q2.2-.4 1.8-.6l3.2-.5-.4.2h.7l1.1-.3h1.4c-.4-.1 0-.3 0-.4l3-.3 1.7-.2 2.9-.2-1.4.2q-1 0-.7.1l-3.9.3c.3 0-.3.2-.3.2s.6 0 .3.1c0 0-1.2.2-1 .3l2.2-.5c2-.1 2.8-.3 4.6-.5h.5l.3-.2h1.7l-.6.1-5.4.6.6.2-2.8.3v-.1l-4.4.6-2.7.3c.8 0-.4.3.9.2l-.3-.1 1.6-.3c1.3-.1 1.1-.1 1-.2q1.3-.2 1.2 0H44l2.1-.2c.7 0 .7-.1 1.3-.2l3-.3-.7.2-1.5.2 3.2-.3-.5-.1L53 12c0 .1-.2.2.6.2l.5-.2H56l2.2-.2h-.9l-3.9.2-2.4.3-.5-.2H52l1.7-.2h1.9l2-.3c.2.2 1.8 0 3 0h-4.1L63 11l4.1-.2c.1 0-.4 0-.3.1h1l1.6-.3h-1.1c-.1 0 .3 0 0 0l1.6-.2h-1.6v.1c-.2 0-1.6.1-1.6 0h.3c-.2 0-1.5 0 0-.2h1.2l-1 .1c2.6-.2 4-.2 5.8-.1l1-.3 1.4-.1s.3 0-.3.2l-2 .2H72l-1.5.2h.5l-.8.2h.5l1.5-.2c.4 0-.4.1-.4.2h1l1-.2h-.5l1.6-.1h-1l3.7-.3.5-.2 2.8-.3q-.8 0-1.6.3H81l1.1-.1h-1c.5-.2.3-.2 1.5-.3v-.1l2.2-.2h1.4l1.4-.2h-1.1l1-.1q.6 0 0 .2l1.1-.2h1.1l1.7-.1-1.7.1c-.1.2-1 .3.6.3l-1 .3h-1.4l-1 .1h-2l.3-.2-1.4.1.5.2h.6s0 .2 1 .1H87v-.2l1.6-.1h1.1l-.8.2h-1.3L86 10l-.3.1.4.1v.2l.3.2-1.4.1-.6-.2c-1.3.1-1 .2-1.7.4h-2.1l1.6-.2-2 .1-.7.2-3.3.3-.6-.2-1.3.2h-3.6l-1.6.2h1l-.5.2 1.5-.2 1.9-.2a37 37 0 0 1-5.8.6v.1h-1.4l2.7-.5h-1.4l-2 .3-3.1.3h2.5l-.3.1c3-.2.7.2-.5.3l-1.4-.1c-1 .1-.6 0-.3.1l-3.2.3q-3.6.3-3.9.7l1.4-.3.8.1 1.6-.2-.5-.1 1.7-.2q1.9 0 3.8-.3v.1h-1l-.9.3h-.3l2-.1h1l2-.3-.4.1 2.5-.3 2.7-.4-.5.2c-1 0-1.4 0-2.2.2h4.5H72q.6-.2 1.6-.2V12l1.6-.1c-.8 0-1.5 0-.3-.2h1.4l.4.1-.4.2.6-.1 1.8-.2h1.1l1-.1h2l-1-.2.5-.2h1.6l-.3-.2h2q-.7 0-1 .2-.3.1.5.2H84v.2h2.2l-.6-.3 2.2-.2h1.3-.2 2.3c1.2-.1.7-.2 1-.3h.7l5.5-.6.9.1 1.5-.1c.5-.1.2-.2 1.4-.3l-.2.2 1.9-.3h2.7l-.3-.1h2l2.6-.2h2v-.1l2.8-.1h1v.2l.6-.1h1.6l-1 .1h1c.5 0-.4.1-.2.2l2.7-.3h.8v.1h2.3-1.1q.1-.2.5-.3l.8-.1h6.9q2 0 2.2-.2l4.3-.2-.5.4 1.6-.3h2l1.9-.1h-1.6v-.1H139l-1.4-.2h1.3l.3.1h2.2v-.2h3.1l.7.1-.5.2h-1 4c1.3 0 .3-.1.3-.2h1.3l1.2-.2 1.9.1c.6-.3 3-.3 5.2-.4l2.2-.2.8.2-3.3.1 1.1.2c-.1-.1 1.2-.2.6-.3h2.2l1.6-.4.8.2h3.3V8c.7-.1 1.6-.2 1.3-.3h-2.9l1-.2 1.7.1h2.5-1.1v.2h3.3l-1.1-.3h2.2v-.2l1 .2c-1.5.1-1.1.2-.2.2l2.4-.1-.5-.1 1.6-.2c1.4 0 1.2.2 2.8.2.1 0-1.6 0-1-.2h1.5-.9q-1.5 0-1.3-.1h3.8-1l.5.3 3.9-.1c.2-.1-.5-.1-.5-.2-.1 0 .7 0-.1-.1h2.2-.5.5l-1.1.1v.1h1.7V7h3.2-.3q1.1-.4-2.4-.3l1 .1h-3.8v-.1h-2.2l4.4-.2h1.1-.5 2.7c-.8 0-2.3 0-2.2-.2l-3.6.2h-3l.5.1-4 .2c-1.7 0 0-.2-.4-.3-1.8 0-1.8.2-3 .3h-2.6l-1.2.1h-5.8l1.7.2h-5.5v.1h-.5l-2.7.1 1.6.1H159l-2.5-.1h-.2l-1.5.1h-4.3l-3 .1.5-.1h-1.6c-.2.2-.1.2-1 .2h-.1l-3 .1h-.3l2.7-.2c0-.1-1.7-.1-1.6-.3h1.6L144 7l-2 .2h-.2l-.4.1c-.1.1.5 0 .4.2h-.5V8h-1.9l-1.9.1 1.1-.1-1.1-.1s.2.1-.3.1l-1 .1h-2.3l-.5.2-.8-.1c.6 0 2.3-.2 1.5-.2h-2.4l-2.4.3.6-.2c.7 0 1.7 0 1.6-.2l-2.8.2v-.2l-1.6.1.6-.1h.5-.5q-.1 0 0-.1h-.6.5v.1h-.5c-1.6.1.1.2.4.2l-.4.1s1 .1.5.2h-1.3q.3-.2-1.4-.2c-.2 0 1.6 0 .5.2h-2.7q0 .2-1.6.3 1.2-.3-1.7-.2l.5-.2h-4.4l-.5.2 3.8-.2.6.4h-1 2.1l-3.8.2h-2l-2.4.1 1.1-.4H112c-.6.1 0 .1-.4.2a21 21 0 0 1-4.8.5l-3 .1-1.7.2c-1.3 0-2.1 0-3.4.2l1-.2h-3l-.3.2q-1.9 0-3.8.3c.3-.1 1.4-.3-.6-.2l.6.1-3.3.4.3-.2h-3 .1l2-.3-1 .2 2-.2-.9.2.7-.1h.6c.8-.1 1.3-.3-.3-.1l.8-.2 3-.1h1l1.2-.1-1.4-.1h-1.6l-1.1.1h-.8c1.1-.2-1.3-.3.8-.5l1.3-.1-.6-.1h-1l.7-.1 2.6.2.5-.2c1.3 0 2.1 0 3.3-.2v.3h1.4l.5-.1h2.2l.3-.3h1.6l1-.5h3.6-.7l-1.1.2-1.1.2h1l-.5.2 2.2-.1c0-.1 0-.2 1.1-.3.4.2 1.3.2 1.2.3L113 8l1.4-.2h-1c-.2 0 .3-.2-.1-.3h2.2-.6l2.2-.3c0 .1.3.2-1 .2l.5.1-1.4.1H114c.2.1 1.3.2 1 .3 0 0-1.2.1-1 .2 2-.1 2.6-.3 2.7-.4l1.6-.1h-.2q-1 0-.9.2h2.6-.9c-.4 0-1.2-.1 1.6-.3v-.1l-1.6.2c-.3-.2 1.3-.3 2.4-.4.2 0 0-.2.3-.2h1.9l3.6-.2c.1.2-1 .2-2.2.2l-.6.4-2 .1s.7 0-.1.2l2.2-.1.2-.2h2.5l-1-.2h1.6l1-.3c-.4.2-1.4.4 0 .5l-1.8.2-3 .1h3l3-.1c.5 0 2.9-.2 3.5-.1l.8-.2-2.7.1v-.1h-1.6l3-.2 3-.2h-2.5l-2.4.3c-.7-.1 2-.3 1-.4h1.6-.5 3.5c.7 0 0 0 .5.1l2.4.2-.3-.1 1-.1h-1.6s-1.2 0 .4-.2h6.2-1l.3.1c-.2.1-1 .1-.9.2l1.6-.3h1.6-.5l.5-.2h1.7v-.1l2.4-.1-.3-.1c1.2-.1 3-.3 2.8 0l1.4-.2-.3.2h1.7l-.3-.2c-.4 0-1.4 0-1.4-.2h5c.5 0 .6.2 1.3.2q1.4 0 1.4-.2h1v.1l1.2.1.5.2h2.2l-1 .2 2.1-.2s-.2.2.9.2h.8l1.6-.1c.2-.1-.6-.1-1.1-.2v-.2l1.1.1h1.1l2.7-.1.9-.3.3.1h2.3l2.6-.2h-1.1l.5.3h-1.6c.5 0 .2 0 0 .2h3.9-1.4l2.1-.1 2-.2-.6-.2h-1.6v.2h-1.1l1-.2h-1l1.3-.3h3l.5.1h-.4 2.2c-.1.2-.4.3-2 .4-.3 0-1.5 0-1 .1h3q-.4-.2 1-.2l.9.1 1.3-.1h.7q1 0-.1-.1l1-.1 1.1-.2q-1.4 0-2.7.2l1.1-.3h1.6l-2.2-.1h3.3q1 0 2 .3l1.9-.1.6.2h-3.8l1.7.2h-.1c-1.1.1-1.7.2-2.8.1v.1h1.4l2.7-.2c1.8 0 .2.3.4.3l1.3-.1c.3-.1 0-.2 1.4-.2h-2.2l1-.2q.2-.1-1-.2h3l.3.1 2.1-.2-1.9.1q-1 0-.8-.1h1-4.9l1.4-.1c.4 0 .3-.2 1-.2 1.8 0 .3.1.4.1l3.5.1h2.7c1.1 0 .8-.1 2-.2l.3.2c.6 0-.2-.1.8 0l1.6-.1c.1.1-.4.3.9.3l2.4-.1h-1.6.4q-1.2-.1-1-.3h4.2l1.9-.2c0 .1.2.2-1.1.2l-.6.3 3.9-.3h.8l1-.1q1.3 0 0 .1c-1.2 0-2.1 0-1.8.2 2.3 0 2.4-.2 4.5-.3l3.5-.1h6.7l1.2.2h-1.1V5h-4.4 2l1.3-.2H232l-1.4.2h2.5l.8.1h-3.3v.2h3.9l.8-.3c1.9 0 1.2.1.3.2h2.4c.4-.1.1-.2.3-.2l3.5-.1-.8.2h-.2l.3.2h1l.5-.2c-.2 0-.5 0 .6-.2h-.5l1.6-.1-.5.1h1l.6-.3 2.7.2-.5.1h-1V5l4.3-.1v-.1h2.2l-1.1-.1 2.4-.1h1.9l1.1-.3c1.6 0 .3.1.7.2h5.4l-1.4-.1 2.1-.1h1-.6c.7.2 1.8.1 1.6.2h6.9l-.3-.2h1.6l1.2.4h-2.2l.5.2h2.2l.6-.2-.9-.1c-.6-.1-1 0 0-.2l2.5.2v-.1h1v-.2l1.2.1h7.1c.3 0-1.1.1-.5.2l-1.1.1c-1.1 0-.3-.1 0-.2h1c-1.8 0-3.4 0-3.2.2h-2.2l.6.2h1.9c.4 0-.9-.2.5-.1h1.3c.3.2-1.7.1-1.5.3l.8-.1 2.4-.1v-.2h1.1l-.5.2h4.9c.5-.1-2 0-2.5-.1l-1.9-.1.6-.2 1 .1h1.2l.3.2 1-.2c.8 0 .5.1 1 .2h2.6l1-.1c.3 0 .3-.2 1.7-.2l.3.2h1.4l-2.2.1 2.5-.1c1 0 2 0 1.9-.1h5l-2.8.1v.1q-3.2.1.3.2l.8-.1h1.6l.6-.3h1.6q1.6 0 1.6-.2h2.2l-.4.2 1.6.4h2.4l.6.1q1.3 0 .2-.1l-2.2-.3h-1 6.5l-.5-.1h1.6v-.2c1 0 .2.1.9.1l3.8-.1h2.6l3.3.1 7.8.1 5 .1c.7.1-1 0-1 .1l4.5.2h-2.2l.5-.2h3.6l2 .1h1.9c.2 0 .9 0 .5-.1l-2.5-.1h6.3c1 .1.9.2.8.3l.6-.1 4 .1h2l-.5.2 1.6-.1-.5-.1h4.2l1.8.1 1.6-.2v.2h3.3-1l.8.2-.3-.1h4.4v-.1h1.6c-.5 0 0 .1 0 .2h-2.7l1.1.1h-2.2 1.1v.2h4.1l-.3-.3c1.4 0 1.8.1 2.7.2h1.7-1.1c.6-.1.3-.2.8-.2s1.1 0 0-.2l-3 .2s-.3-.1 1-.1V5h2.8v.2l2-.1h2.8l3.5.1-1.1.1h5.4l-.5.1h.8l2.5.1v.1h6l-.8-.2h-1.4l1.4-.1 1 .1h3-.2 8.3c1.7.2 3.2.1 5.5.2h4.3l3.9.1 2.7.2c.5 0 0-.2 1.3-.1V6h1.7q-1.7 0-1.6.1h-1.1c-.2 0-.8 0 .2.2h4.7l-2.1.2q2 0 1.6.3h1.4c.7-.1.6-.2 1.9-.2l-.3.2c.7 0 0 0-.1.1h.7c.3.2.2.2 1.3.2v.2h-.8l.3.1h-5.1l-4.7-.1h-3.8l-3.6-.1h-2.8V7h-11.5l-1.1-.2.2.2h-2.4l-4.6-.1-1.9-.2h-4.4l-6.6.1-6.6-.2h-12.3v-.1h-.9l-.5-.1-.9.1h1.7-8.1.5l-1.7.1-2-.2.4.2h-5v-.1h-21.9l1.1.1h-2.1l-.9-.2-.8.3c-1.6 0-.5-.1-.6-.3H327l-1.6.1H324q-1.2 0-1-.2h-2.3v.1h-1v.1H318c-.1.1-1.6.2-1.7 0h1.1-1v-.1c-1.2 0-2.3 0-2.2.1h-1.4q-2.2 0-1.9.2h-1.6v-.1l-2-.1-.8.1h1l1 .2h3.5q-1-.2.8-.3l.3.3 1.9-.2h-.3 3.9q-.5.3 1.4.4l1.9-.1H320v-.4h4l1 .2h2.7s-.2-.2 1-.2v.1h1.1v.1h1.1v.1h1.7l2-.1c.9 0 1 .2 2.4.2l-.3.2h2c.3-.2-1.8-.3-1.7-.4h3.8-1l1.4.2h1.3c-1 0-1.6.1-.3.2l.3-.2h2.2l.5-.2c1.7.1.7.1 0 .2 1.5.3-.6.1-1.4 0q-.5 0-.2.1l3.3.1-.6-.1h1.6v-.1l-1-.2h3.3c.3.2-1.3.2-2.2.2q.1.2 2.2.2v-.2h4.3l2-.2 1.9.1h-1.7l-.5.1 3.5-.1q1 0 1.9.2h1.1l-.5-.1h2l-.4-.1h1.7l-.5.2 2.1-.2-.2.2h-.8l2.4.2 2-.1h1v-.2h1.1l-.5.3 2.4-.2h3.8l1.9.2 4 .1-1.1.2 1.6.1q1.2 0 1.1.2h1l-3 .1zM100 8.3h-1.4l.6.2-2.2.1-.6-.2h2.2V8l2.4-.2.3.1h.6V8h1l-1.5.3zm-3.6 0 .3-.1h.8zm-3.3.1h-.6zM73.8 9.7h-.5zm-5 .4L70 10zm-9.7.8h-.6zm49.2-3.3h-.5zM84.8 9h-.5zm48.7-2.5h1.7zm-14.8.8h-1v-.1h1.6zm-76.6 5.3-1.6.2h.8zm51.4-4 1.1-.2v.1zm47.7-2.4h1.1zM63 10.7l-1.6.1zm68.5-4v-.1h1-1m-1.7 0h.6zm-86.5 5.8h1l-1 .2zm-5.4.8-1 .2c0-.1 1.7-.5 3.1-.6v.2l-2 .2m72-5.6h2.8-2.2l-.6.2zm37.8-1.4q.6 0 .5-.2h1.7zm-8.8.1h1.1zm-9.8.5h-.5zM60.9 11c0 .2-2 .3-3.4.4l1.4-.2zm16.9-1.1.5-.2h.5v.1zM144 6.2h-.5zm-7.2.3h-.5zm35.7-1.2h2.7zM28.4 15c.4 0 0 0 .5-.2l1-.1 2.4-.4-1 .1v-.2l1-.2-1.7.1h.3l-1.4.4c-.5.2-2.7.6-1.1.5m135.3-9.4h1.6v.1h-1zm-2.7 0h.5l.6.2H161zm-94.8 5h-.6zm-4.8.5c-.6 0 .6-.2.9-.2.5 0-.6.2-.9.2m-28.6 2.8h1.7zm113.4-7.7h1zm-7.2.3h-.5zm-4.9.2 2.2-.1zM185.6 5h5q-2 .2-4.4.2zm-3.3 0h1.1zm-60.8 2.2q1.7 0 1.6-.2zm-8.7.6h-1.1q-.7 0-.6-.2h1.1zM196.1 5l2.1-.2-1 .2zm-52.7 1.4h-.5zm-78.3 4.3h1zm114.5-5.4h1.1zM126 7.1h.6zM19.3 15.9h-.5zm179.5-11h1.7zm-115 4.5h.5zm56.9-2.9h-.5zm-3.9.2h-.5zm-6.5.2h.5zm45-1.5h-.6zm-2.3.1h-.5zM110 8h-1zm47.7-2h-1zm-5.5.1h.5zm-97 5.7-1.6.1 1.1-.2zm197.4-7.6h1.1zM144 6.6h-.5l.8-.2.8.1zm32.3-1.1h1.1l-.8.1zm67.5-1.2h-.5zm-54.3 1.1q.8 0 0 0c-.8-.1-1.8 0-1.6-.2h2.7v.2zM27 15.2h-1.2l-3.3.3c1.5 0 1.6.1 4.5-.3M129.2 7h1.1zM177 5.7h1.6-.4c0-.1.6-.1.4-.2l2.5-.1 1.4.1-1.1.1h-2.8l-.5.2zm-79.4 3h-1.2v.1zm65.1-2.6c-.5 0-1.8 0-1.6.1zm-7.3 1.2 1-.2h1l-1.7-.1c-.3 0 .2-.1-.6-.1l1.7-.2.5-.2c-1.2 0-2-.2-3.9-.1.1 0 .7 0 .6-.1l-5 .1h2.8v.1l1.6-.1.9.2h-1.4l1.1.2-1.4-.1h-2.2l-.8.1c1.8 0 .9.2 1.7.2l-1.7.1.6.1h2l1.3-.2h1l-1 .2zM65 11q.9 0 .8-.2zm95.6-4.9h-1.1v.1zM95.8 9H93l1.4.1zm-15 .8h.2l-.5.1zm-17.3 1.4-2.1.2zm123.8-5.6-.5-.2H185zm62.8-1.1h-.9 1.7zM77.2 10.1l-1.6.2h.8zm188.5-5.8h1zM172.5 6h2.2zm88.8-1.5h.8zm-45 .5h.6zM35.2 14.1H34v.2h.3zm70.6-5.7h.5zm55.9-2.2h.5zm-4.4.2v-.1h-.6zm-50.4 2.5 1-.3h-1c-.4 0-.1-.1-.3-.1l-.8.2-2.2.1c-.3-.1 1.2-.1 1-.2h-1.3l-.8.3h-1.9l-2.5.2c0-.1-.7-.1 0-.3l-1.6.1q1 .2 1.1.4 2 0 1.7-.3h4.9l.2-.2 1 .1zM240 4.6h-.5zm37.3-.3h1.1zm-143 3q0-.2-1.7-.1zm-14.3.5h.5zM168.1 6h-1.6zM285 4.3h-.6zm-45.5.4h1.6zm77.8-.4h.6zm-281.5 10c1.4 0 1.2 0 1.1-.2h-1.1zm1.7-.4h.5zM268 4.4h.5zM110 8.3h.5zM165.9 6h-.5zm-151 11 .6-.2zM148.5 6.7v-.1h-1zM80 10h.6zm-1.6.3h.6v-.2l-2.8.3zm-7.6.4h.5zm112.8-5.1h1zm44.4-.8h.5zM109.5 8.4h-1.1zm191.3-4h-.6zm-5.5 0h1.7zM159 6.7c1.7 0 2.2-.2 3.8-.3h2.7c.5-.1-1 0-1.6 0q-.1 0 0 0-1.2-.2-1.1-.3l-4.4.2-.5.3h1.6zm50.4-1.6c-.2.2 2 .1 2.7 0-.5 0-.4-.1-.8 0zm42.1-.6h-.5zm-19.1.2h-.6zm72-.4h1.4v.1h-2.2zm-86.8.7h1-2.2c.3.2-.5.2-.4.3zM39 13.8l-2.2.2v.1h1.4zm259.6-9.4h-.5zm-7.7.1 1.1-.1v.1zm26.3 0h-.5zm-47 .4-1.2-.2h2.2v-.1h-4.1c.2.2 1 .2.8.3zm-44.5.1h-1.6zm32.4.3c1.8 0 1.8-.2 3.8-.2l-1.1-.2h4.2c1 0 2 0 1.8-.1h-2.2v-.2H262l-.1.2h-1l-.1.1h-1 .4l-.8.1h-1.3q1.7.1 0 .3M46.9 13h.8c.4-.2-.4-.1-.8-.1l-1.4.2zm-12.3 1.3h-1.1v.2zm125.9-8h1.6zm87.7-1.5q-.2-.1 2.2-.2v.2zM21 16.2h-.5zM274 4.6h-1.7zm42.7-.1h1.4zm-16.5 0h-.5zm-271 10.8c.1-.1 0-.2-1.6 0l-1.1.3zm-2.7.2.5-.1zM208.7 5.3h-1zm84.4-.8h1.1zM149 6.9h-2.2zm-3.3.1h-.6zm-23 1h-3.3v.2h1.7zm97-2.8h-1.1zM45 13.4h-1.1zm124.2-7.2h1.2zM439 5.7h-1.1zm-108-.5c-.8 0 0 0 .5-.2h.2l1.5-.1-1-.2h-.9c-1 0-.4 0-.3-.1l-2.7.1v.1h1.1l-1.6.1 2.7.2h-2.7 1.6l-.5.1zm-137 .5h-.6zM85 10h-1.1l-.5.1h-1.1v.2zm-10.9.7h.5zm56.4-3v-.2h-1.1l.5.2zM61 12.3c0-.1-.8 0-.4-.2l2-.5-3.8.3h1.1c.8 0 .6 0 .6.2h-1.2l-.5.2zm287-7.7h1.7zm-88.2.2v-.2l-1.6.1zm.6-.2h.5zm82.2 0h.5zM33 14.7h-1l-.2.1zM338.7 5c-.7-.1.2-.2-1.2-.3v.2zm-3.9 0h1.6l-.5-.2h-2.2 1.7c0 .2-.9.1-1.7.1 0 .2-.9.2-1.6.3l2.7.1zM152.3 6.8h1V7h-1.6zm36.2-.7-.6-.2h-1.1l-2 .2zm90.4-1.4h.5zm-89.3 1.2v-.1h-.6zm-48.8 1.5-.6-.1zm-3.8.5.2-.2.2-.2c-.2 0-.7 0-.5-.1h-1.6l.5.2-1.6.2h2.8m222.4-3h-.5zm-7.6-.2h1.1zM124.3 8h-1l.8.1zm-72.2 4.8h-.5zm-8.2.9 1.4-.1 1.9-.4q-2 .2-1.7.3zm306.8-8.9h-.5zm-42.8 0 .3-.1h.3zm-94.8.9c.3-.2-1.8-.1-2.6-.1h-1.2l1 .1zm209.7.3h3.5c-1 0-1.6-.2-2.7-.3h-2.1l.5.2zM245.5 5h.5zM195 6l-2.7-.1zm213.8-.6h-.5zM133.1 7.6h.5zm92.7-1.8c0-.1.2-.2-1.1-.2l1.3-.1h.8c.2-.2 1.6-.2 2.8-.3h-3.9l.6.1-2.5.2h-1.4.6l-2.2.1h3.3q0 .2 1.7.2m121.6-1h-.6zm83.3 1h-1.6l-.3-.1h-2.5q2 0 2.2.2zm.6 0h.5zM99.7 9.1h.6zM280.5 5l-.8-.1h-2 .4zm112.5.7q-.4 0 .5-.2h2.2l-.9-.2.3.2h-4.4zm-226.5.9h.6zm262 0c1.3 0 .8-.2 1.2-.2h1.6l-1.1-.2 2.8.1-.6-.1h1.6v-.3h-1.6l1 .1-1.5.1v.1l-1.7.1q-1.7 0-1.7.3m-88.2-1.7h.5zm-87.2.1h-.2l-.9.1zM100.3 9.4q2.5 0 4.9-.3L104 9l-.6.1h-2.7v.3zm-56 5 1.1-.1.8-.3h1.1l.6-.2 2.1-.1v-.1l2.7-.2L56 13h-1c-.3.2-1 .2-1 .1-.3 0 0 0-.1-.1l1-.1h-1.6l1-.2-1.3.1q-1 .2-.8.3l-3.2.3h-.5l1-.2q-3 .3-3.2.6h-1.4l-1.9.5 1.1.1-1 .2zM207 5.7h-2.2l.3.1zm119-.8h-1.2zM71.7 11.1h-1.1v.1zm241-6.3h-.5zm-41 0h.5zm-1.1 0h.5zM124.4 8.2V8h-.6v.2zm-72.8 4.7h-1.1zm-14.7 1.7H38l.8-.3h1q1 0 1.4-.3h-1.6l-2.5.4zM172 6.4h.6zM342.5 5l.5-.2h-1.6l1 .2m-309 9.8h.6zM245 5.2c3 0 1.7-.2-.6-.1zm77.5-.3h.8l-2.2-.1c.6 0 0 0 0 .1zm-2.5 0v-.1m43.3.3h1.1-1.7v.2zM73 11h.5zm284.3-6c0 .3 1.1.1 1.8.1h1.4c.2 0 .8-.1.6-.2h-2.7l.5.2zM179.1 6.4h-.5zm41.2-.8H219h1.2m-2.2 0h-1zm217.9.8h1c.5 0 .1 0 .4-.2.1 0 1 0 1-.2h-1.7v.4H434zM344 5h.5zM169.8 6.6h-3.3l-.5.3c1.4-.2 1.8 0 3.3-.1zm-140 8.7h.5zM107.4 9h.5zm313.2-3.2h-1.4l2.2.1zM147.4 7.2h-2l-.2.1zm-69.6 3.6h-.5zM273.4 5h.6zM133.1 7.8h.5zm138.7-2.9h.5zM51.6 13l-1 .1zm250.3-8.1h.5zm-47.6.4 2.1-.3c-1.3 0-.9.1-1.6.2h-1c-.5 0 .4.1.3.1-.1.1-1.1.2.7.2zm-244 13.1s-.5.2-.6.1zM162.1 7.1H161v-.2h4.3c-.6 0-.2-.2-1.3-.1h-2.5c-1.3 0-1.1 0-1 .1h-2.8q.6 0 0 .2zM296.5 5h.5zM15 17.7l1.7-.3v-.1q-1 0-1.7.3M197.8 6H196zM85.5 10.3H85zm152.3-5h-1.1zm-49.9 1c1.3 0 1.5 0 1.7-.2h1.6-1.6q-1.7 0-1.7.2m45-1 .5.2h1.7zm-1.7.1h-1zm-46 1c-.9 0-.2-.1-.7-.2H183l2 .2zM271.8 5H270zm-2.2 0h-4.4l.5.2h1.8l1 .1q.6 0 1-.3m-94.3 1.4h.5zm86.1-1.1L264 5c-1 0 0 0-.7.1-.6 0-2.4 0-2 .2m179.2.8h2.2zM41.8 14h.5zm294.7-9h.5zm36.7.2H372zm42.1.6h-1zM143 7.4l.6.1zM280 5h-1zM80.6 10.7h.5zm59.7-3-.6-.1.3.1zm216-2.4.4-.2h-1.6l.6.2zm-175.5 1h.5zM349.3 5c-.3 0 .8.2 0 .2H347h4.4zm-3 0h-1l.7.1zM298 5h-1zm-1.7 0h-1.6zm84 .3h-1.2zm48.7.8-1.4-.2c-1 0-1 .1-.9.2zM293.7 5h.5zm125 .9c.7 0 .7.2 2.2 0l-2-.1h-1.3zm-48.2-.6h1zm-87-.2.3-.1h-1.6l.6.2zm40.6 0q1 0 .9-.1h-1.1zm-1.3 0h-.6zm81.4.7h1.9l-1.7-.1-1.1-.1.6.2h-1.7zM274 5h.5zm-44.4.6.3-.2v.1h-1.4q.3 0 .5-.2c-2.8.2-1.9.4.6.4zm167.7-.2h-1zM46.5 13.7h-.3l2.7-.4-1 .3h1zm126.7-7v-.1H172zm-56.2 2 .8-.1zM344.7 5h-1.1l.8.1zm-45.5 0h.5zm-92.6 1v-.2h-.6V6zm-7.2.1-1-.1zm171-.6c-.7-.1-.5-.2-.5-.2h-1l1.3.2zm39 .2h-1.1zM53.2 13h-.5zm166.5-7.4-1.6.1zm7.2 1h2.8-2.2l.5-.2h1l-1-.1h-2.2c.8 0 .5-.1.5-.2h1.1q.7-.2.6-.3c-1.4 0-1.5.2-1.7.3-1.4 0-1.3-.1-2.2-.2q-2.4 0-2.7.2H216c-.3-.1.3-.1.4-.2h-.5l.5-.1c-.2 0-1-.1-1.6 0 .4 0-.7.1-.5.2.5 0 1.6.1 1 .3H213h2.5l1.6.1h1.7l-.6-.1h2.2q-.6 0-1 .2l1.8-.2 2 .1.4-.1-1-.1 2.2.2h2.2zm-16-.8h-1zm125.6-.7h.5zm41.6.3h-1zM95.3 9.8h-.5zm103-3.6q-.5 0-.5-.2l-1.1.1zm196.3-.5h-1.1zM54.9 12.8h.5zM38 14.7h-1.7v.2zM424.7 6h.5zM51.4 13.3l-2 .2 3.3-.4zm253.3-8.2h.5zm-3 .2q1 0 .8-.2h-.6l-.5.2zm-259.9 9 .5-.1zm298.5-9h1.1q.3-.1-1-.1h-1.2q-.2.3 1.1.2m-186.9 2h-1zM246 5.5h-1zm41.1-.3h-1zM147.4 7.5l1 .1h-1.6zm49.3-1.2-.5-.1h-1.7c.1 0 1 .1.5.2h-.7zm168.6-.7h-.2c0-.1.7-.2.4-.2q-2.1 0-.2.2m-129.7 0h.6zm36.2-.3h-.6zM131.5 8.2h-.5zM171 6.9h3l.3-.1zm94.3-.9H262h.5l-.8-.1h-.8l-1-.1h.3q-.5-.1-.4-.2l1.9.1 1.7-.1h1.3c-.3 0 .4-.1.4-.2 0 0-.7 0-.4-.1h-1.1l.5.1-3 .1h-.2l-1.7-.1c.2.1-.7.2 0 .4h-4.4l2.5.1h2.2c1.4 0 .3.1.3.2l-3.3.1h3.9-.6 1l.1-.2c1.8 0 1.7.2 2.5.3zM29.8 15.7h.6zm264-10.5h.5zm124 .8h1zh-.8zM282 5.4h.9l-1.7-.2.6.2zm-46.3.3h-3.3 1.7-1.1l.8.1zm75.7-.4h-.6v.1zm78.9.4c-.2 0 1.1.1 1.6 0zm-86-.5h.5zm136.4 1.3H439zm-233.2-.3h2.8q1-.1.8-.2h-2.8v.2H206zm-134 5.3 2.7-.2zm269.6-6H342v-.2h-.6l.6.2zm-44.4-.2h.5zm83.3.4h-2.2zm-130.5 0-.5-.2-.8.2zM377 5.6h.6zm-5.4 0h-.6zm-291 5.6h-2.2l1.6-.1zm288.2-5.6h-1.6zm-15 0 .8-.2h-1.1v.1zm-9.1-.2h.5zM32.6 15.5l-1.1.1zm170.7-9.3h-1.1zm123.9-.9h.5zm84.4.8h-.6zm-142.8-.4 1.4-.2h1.6-2.7zm82-.2h.5zM118.9 8.9h.8zm183.6-3.6h.5zm-3.8.1h-.6zm78.3.4h-1zM87.7 10.7l.9-.2h1.3zm327.7-4.5h.5zm-142.5-.7h.5zm116.2.4h-2.2zM115.7 9.1h1zm-73.9 5.4h-.5v.1zm390-8h.6zm-227.6 0h4.1-1.7l.6-.2h-3.3l-1.7.3zm83.6-1h1zm-91.3 1h2.4-3.3zm43.5-.7h-1zm45.5-.2h1.7l-2.8-.1zm56 0h-.6zm-142 1.3 1-.2.6-.3h-1c-.6.1-.3.2-1.7.2h1zm8.8-.6h.5zM10.4 19l1.6-.3zm319-13.4h-.6zm86.8.7h.9-1.2zM242.8 6h-.6zm82.2-.3.5-.1zl-1 .1zM76.8 11.4h1zM184 6.8h-.5zm123-1.2q1.2 0 .9-.1h-2.2zM179.2 7h.6zm122.3-1.4-.5.1h1l1.2.1zm43.9 0h.5zm-175 1.7h-.5zm33.5-.8h1zm45-.6h.4zm27.9-.2h-1.1zM184 7l2.2-.1zM72.5 12h-.6zm157.1-6h.6zM65.8 12.3h-.5zM228 6h.5zm220.8.9h-.5zm-400.9 7-1.7.3h1.2zm397.7-7.1h.5zm-404.8 8h-1.1zm170.7-8.5h.6zM92.1 10.5h.6zm105.7-3.9H194h1l-.4.1h-1.2l.3.1h.9l.5-.1h1l-1 .1h1.1zm-107.3 4h-.6zm54.2-2.5h-2.2zM238.4 6h.5zM79.5 11.4H79zm285-5.6h.5zM119.5 9h-.5zm-10.4.8v-.2h-1.4l.3.1-1 .1zm-77.6 6h.5zm73.8-6h-1.7 1.6M160 7.6h-.5zm88.3-1.4-.6-.1h-.8l-3.6-.2.6.2h1l-.2.2zM87.3 11h-.6zm196-5.2h-1.1zM54 13.6h-1zm122-6.5h-.5zm172-1.3h-1.7zM168.8 7.4l1.6-.1zm-53.7 2h-1zm-2.7.1h-1.1zm141.4-3.4-.6-.3-.5.2h-3.3.5-1 2.1v.2zm-3.3-.2h.5zm-57 .9h-.6zm87.7-1.1h.5zm-5 .3c.1 0-.7-.1-.4-.2.2 0 1-.1-.7-.1l-.4.2zm-46 .2h1.6zm-109 3h-.6zm-80.4 5.7h.5zm112.7-7h-1.1zm132-2.1v-.1h-.5zm-46.8.8c.6 0 .3 0 .3-.1h1l1.2-.2H239v.2q-1.4 0-1.1-.2c1.6 0 1.6-.1 2.1-.2h-3.8l-1.6.2h2.4c1 .2.7.3 1.7.3M136 8.5h.6zm137-2.7h.6zM184.7 7h-.5zm82.8-1-1.7-.2V6zM122.2 9h1.1zM445 7h-1zM44.6 14.4h.5zm300.7-8.7h.5zm-180 1.7-.9.1zm215-1.4h.6zM20.8 17.5h.5zM150.2 8h-.6zm92.6-2h.5zm-97.5 2.5c.4-.2.1-.3 2.1-.4q-1 .1-.5.3zM355.2 6H354v-.1h-.6l-.5.1zm-5-.1h.6zm-78.4 0h-3.2l1.9.1zm-161 3.8h.5zm-9.9.5h-.2l-.9.1zm191.2-4.4h-1zm-87.1 1-2.7.1h1.3l.6.1zm80.5-.8c1.7 0 1.8-.1 1.7-.2q-1.8 0-1.7.2m-43.3.2c.2 0-1-.1-1.6 0zm-94.2 2h.5zm134.2-2.4h-2.1l.8.1zm-151.4 3h-.9 1.1zm-15.9.9 2.4-.2-4.3.1zM257.1 6h.5zM97 10.5c-1.2.1-1.8 0-3 .2l-1.4.2 2-.2H97zm225.7-4.6h-1zm-218 4.2h.5zM205 6.7h.5zM330 6h-1.2zm-35.7 0s.1-.2-1-.1l-.6.1h-1.1l2.2.1zM68.7 12.6l-1.1.1zm155.5-6.2h.5zm82.2-.4v-.1h-.6zm43.8 0h.6zm-195 2h.5zm129.2-2h-1zm-202 5.6h-1.2v.2zm152-5.1h1.3l-2-.2h-.1c-.9.1-.2.2.7.2m-51.3.7h1zm47.1-.8h.5zm-97 2.5h-.5zm89.3-2.4H221zM113 9.8l-2.2.1zM162.8 8q1.9 0 1.6-.2h-.5l-1.6.1zM211 6.7h.5zm-104.6 3.5h-1.1zm137-4h-1.1v.2h.2zm-44.4 1v-.3h-1.7.2q.5.1.4.3zm-8.8 0h.5zM128.3 9h.6zm222-3H349zm-2.8 0h-1.1zM216 6.7h-1.1zm100.2-.6h-.5zM136 8.8h.5zm115.9-2.3 3.8-.1.8-.1H255h.3-3.1c0 .1-1.5.1-.2.2m43-.3 1-.2h-1.6v.2zm-192.3 4.2h-1.1v.1zm-9 .6 1.9-.1H94l-.8.1zM91 11h.5zm60.2-2.7h-1.6q-.2.2.2.2h.1l.8.1zm172.6-2.2h.6zm-41.6.2h-1.7l-.5-.2v.2zm-5-.2h.6zM126.5 9.3h.8-1zm98.9-2.6h-1.7zM343 6.2h-1 1.1m-3 0-.3.2h1.7zm-234.8 4-2.7.3h1.8zm274.3-3.8-.9.1h1.7zM336 6.3l.5-.2q-1.4 0-1 .2zm-59.2 0-2-.1h-.2l.6.1zM131.3 9.2l.8-.1h-1zm179-3h.5zm-90 .6h-.5zm-109.5 3.4h-1.7l1.2.2zm-2.7 0-1.1.1zm235.6-3.9c1 0 2.2 0 .8-.1q-1 0-.8.1M210.5 7h-1.1zm-49.9 1.2h-1zm124.1-1.9h.9-1.1zm-41.6.4h4.7l-1.4-.2zm162 .2h.5zm-221 .8H182l.5-.1h-2.2q-.1.4 3.4.3zm161.7-1.1h3q1.8-.1 1.4-.2h-2.5q-1.7 0-1.9.2m-173 1.3h.4zM302.4 6h-.5q-.4.2 1.1.2zm-45.4.3h.5zM165.6 8h-1.1zM26.2 17.2h.6zm169-10h.5zm38-.3h1.2c1 0 1.8-.1 1-.2l-2.4.1 1.6-.2-2.2.1h-1 1s0 .2.9.2m40.9-.6H272zm-5 0h1.7zM178 7.7h-1.4 2.2zm34.8-.5-.6-.1h1.7c-1.4-.2-3.4-.2-4.4 0l.6.2zm77.8-1h.5zm-136 2.2h-1zm133.7-2.2h.5zM152 8.5h.5zm-4.4.2h-1.7zM279 6.4h-1zM138 9q2.2 0 1.8-.2l-1 .2zm-1.5 0h.6zm132-2.6c-.7 0-.5 0-.5-.2q-2 0-1.6.2zm37.4-.2h-1.1zm-42.5.3c1.5 0 0-.2-1.4-.2l-.5.2zm-48 .3h.6zm83.3-.6h.5zm-90.4.9h-.5v.1zm-105.1 3.4h.5zm-2.7.2h.5zm23.5-1q0-.2.5-.2h-1.1v.2zm41.6-1.6h-1.1zm-6.6.2v-.1q-1.2 0-1 .2zM99.4 11h.5zm190-4.6h.6zm-86.6 1h-1zm-6 .2c.5 0-.8-.2-1-.1zm76.7-1q1.2 0 1.1-.1H273zm-54.8.7q1.3 0 1.1-.1h1.7l.2-.2-1.3.1h-2.8zm-55.9 1h.6zm31.8-.7h-.5zm-65.1 2h.5zM224.8 7h-1.1zm76.7-.5h-.6zm-47.2.2c1 .2 3.3 0 1.4-.1zm-8.2 0h1.7zm-82.7 1.6h.5zM282.9 7c1.5 0 1.5-.2 2.7-.2l.3.1h3.6-.6l6-.2.6-.1h-6.6l-.3-.1-2.5.1-.5-.1h-.9l-2.1.2h-10.1q-.1.1 1.6.2h1.4l.8-.1q3.6-.2 3.8.1h2.2l1.1-.2zM149.7 8.8h-1.1zM270 6.7h.8l-1.1-.1zm33.1 0h-.5 2.7l-.8-.2h-5.3l.9.1h2v.2zm-63.5.4-1.7-.1.6.3zm-46.6.5h.5zm69.6-1h-1.1v.2h.3zm37.8.4 1-.2H300l-2.8-.1.5-.2H296q-.1.1.8.2h.4l1.3.1c.4 0 0 .1.4.2zM160.7 8.5h-1.1zm99.7-1.7h-1.1zm-11.5.2v-.2h-1.7V7zm-15.4.1h-1zm-67.4 1.4q2.3 0 3.3-.2zm91-1.6h-.5zm-6 0 2.7.1v-.2L250 7l.5.3zm81-.2h-.5zm-46.5 0h.5zm-42.2.3h.5zm135.4 0h-.6zm-56-.3h.6zm-48.7 0h1.6zm-6 .3q3 0 3.8-.3l-2.7.2zm-41.1.3v-.2h-.6v.2zm116-.6h1.1v.1h-1m-96.4.3h-1.1zm133.7 0h-.5zM370 7h1.1zM183.7 8h.5zm41-.7h-1.6zm-11.4.2h-1.6zm-108 3.4h.6zm225.2-4-.5-.2zm-7.6 0c.5 0 1.8-.1 1.6-.2-.5 0-1.8 0-1.6.1m-86.6.4V7h-1.1v.1zm115.6-.4h-.5zm-86.6 0h.6zm-46 .6v-.1h-1l.7.1zM256 7l.6-.2h-1.1V7zm-49.8.7 2.7-.2h-2.2zm42.7-.6.5-.2q-1.7 0-1.6.2zm37.8-.4h-.5zm88.8.4h-.6v.1zM83 12.3h.5zM279.3 7h2c-1 0-2.5 0-2.3-.2l-1 .1zm-48.5.3h-.5zm84.4-.4v-.1H314h1.1m-93.7.5h-1.6zm-49.3 1h-2.8v.2zm-5 .3v-.2q-1 0-1.6.2zm48.3-1.2h.5zm-4.4.1h-1zM334.9 7h-1.1zM147 9.3l-1 .1zm93.7-2c2.2 0 .6-.2 0-.2zM373.8 7h.5zm-97-.2h.6zm-51.5.5h.6zm78.4-.6h.5zm-89.9.8h.6zm-50.4 1.2h-.5v.1zm-2.1 0h.5zM324 6.9h-1.1zM192 8.1h-1.2zm167-1h-.5zm-92.6 0 .6-.1zm-1 0h.5zm-50 .6h-.5zm111-.6H325zm-93.2.4h-1zM360.7 7h-1.1zm-201 2h-.6zm167.6-2h-.6zm44.4.2h.5zm-106.9 0-1.6-.1zm-91.5 1.3h-1l.7.1zM256 7.2h-1zm26.9 0q2 0 2.2-.2-2 0-2.2.2m40-.1h-1zm-85.5.4h-1.1zm-52 .8h-1.2zM271.9 7h.6zm69 0h-1.5zM210 7.9h-1zm-10.4.3h-1.7zm40-.7h-1.1zm134.3 0h.5zM131.7 10h-1.1zM307 7h1.1-1.6l-.3.1zM177.2 8.6h.5zm172-1.4h.5zm-2.2 0h-1.1zm-92 .2 2.1-.1H255zm-41.2.5v-.1h-1zm156.8-.5h.5zm-141.4.2h.5zm-57.5 1.2h.5zm45.4-1h-.5zm110.7-.6h-1zm-91 .3h-1l.2.1zm-3.2.2h1.6l-.8-.2q-1 0-.8.2m71.2-.5h.6zm-8.7 0H295zm37.8 0h.5zm-44.4 0h.5zm36.1 0h-1zm49.9.3h.5zm-156.2.3h-1V8h1M215 8h.5zm172-.1-.5-.2h1v.1h1.1zm-7-.2h.4zm-59.8-.3H319zm-55.4.1h-.5zm-9.3 0h.5zm-17 .2h.5zm71.3-.3h1zm73.4.5h.5zm-71.8-.4h1.6zm70.2.4h.5zm-2.2 0h.5zm-166 .4h-.6zm1.6 0h.5z"/></svg>